<svg xmlns="http://www.w3.org/2000/svg" version="1.1" xmlns:xlink="http://www.w3.org/1999/xlink" xmlns:svgjs="http://svgjs.dev/svgjs" width="1500" height="1500" viewBox="0 0 1500 1500"><rect width="1500" height="1500" fill="#bfbad2"></rect><g transform="matrix(0.6666666666666666,0,0,0.6666666666666666,249.39393939393938,580.1786208987994)"><svg viewBox="0 0 396 135" data-background-color="#bfbad2" preserveAspectRatio="xMidYMid meet" height="511" width="1500" xmlns="http://www.w3.org/2000/svg" xmlns:xlink="http://www.w3.org/1999/xlink"><g id="tight-bounds" transform="matrix(1,0,0,1,0.2400000000000091,-0.20287814482756517)"><svg viewBox="0 0 395.52 135.40575628965516" height="135.40575628965516" width="395.52"><g><svg viewBox="0 0 395.52 135.40575628965516" height="135.40575628965516" width="395.52"><g transform="matrix(1,0,0,1,0,109.40713559999999)"><svg viewBox="0 0 395.52 25.998620689655173" height="25.998620689655173" width="395.52"><g id="textblocktransform"><svg viewBox="0 0 395.52 25.998620689655173" height="25.998620689655173" width="395.52" id="textblock"><g><svg viewBox="0 0 395.52 25.998620689655173" height="25.998620689655173" width="395.52"><g transform="matrix(1,0,0,1,0,0)"><svg width="395.52" viewBox="2.3 -35.8 556.75 36.599999999999994" height="25.998620689655173" data-palette-color="#ff26a0"><path d="M32.2-23.85L30.4-23.85Q29.9-28.55 27.13-31.15 24.35-33.75 20-33.75L20-33.75Q17.35-33.75 15.03-32.63 12.7-31.5 10.95-29.4 9.2-27.3 8.2-24.35 7.2-21.4 7.2-17.7L7.2-17.7Q7.2-13 9-9.4 10.8-5.8 13.85-3.8 16.9-1.8 20.6-1.8L20.6-1.8Q23.85-1.8 27-3.28 30.15-4.75 32.15-7.55L32.15-7.55 33.45-6.5Q31.3-3.55 28.8-1.95 26.3-0.35 23.83 0.23 21.35 0.8 19.3 0.8L19.3 0.8Q15.55 0.8 12.43-0.55 9.3-1.9 7.03-4.33 4.75-6.75 3.53-9.98 2.3-13.2 2.3-16.95L2.3-16.95Q2.3-20.5 3.38-23.85 4.45-27.2 6.6-29.9 8.75-32.6 12.03-34.2 15.3-35.8 19.65-35.8L19.65-35.8Q22.45-35.8 24.95-35.05 27.45-34.3 29.75-32.75L29.75-32.75 29.5-35.45 32.2-35.45 32.2-23.85ZM48.95-35L48.95-33.35Q47.1-33.3 46.37-32.5 45.65-31.7 45.57-30.35 45.5-29 45.5-27.2L45.5-27.2 45.5-5.95Q45.5-4.6 45.47-3.63 45.45-2.65 45.35-2L45.35-2Q46.25-2.05 47.15-2.1 48.05-2.15 48.95-2.2L48.95-2.2 48.95 0 37.7 0 37.7-1.65Q39.6-1.75 40.3-2.53 41-3.3 41.07-4.67 41.15-6.05 41.15-7.8L41.15-7.8 41.15-29.4Q41.15-30.4 41.2-31.33 41.25-32.25 41.3-33L41.3-33Q40.4-32.95 39.5-32.9 38.6-32.85 37.7-32.8L37.7-32.8 37.7-35 48.95-35ZM64.45-35L64.45-33.35Q62.8-33.35 62.07-32.65 61.35-31.95 61.2-31.03 61.05-30.1 61.05-29.4L61.05-29.4 61.05-16.8Q61.05-14 61.42-11.38 61.8-8.75 62.85-6.65 63.9-4.55 65.97-3.3 68.05-2.05 71.4-2.05L71.4-2.05Q75-2.05 77.27-3.75 79.55-5.45 80.62-8.45 81.7-11.45 81.75-15.35L81.75-15.35 81.9-29.4Q81.9-30.4 81.95-31.33 82-32.25 82.05-33L82.05-33Q81.15-32.95 80.27-32.9 79.4-32.85 78.5-32.8L78.5-32.8 78.5-35 87.8-35 87.8-33.35Q85.9-33.3 85.17-32.5 84.45-31.7 84.37-30.35 84.3-29 84.3-27.2L84.3-27.2 84.2-15.6Q84.2-12.35 83.5-9.4 82.8-6.45 81.22-4.15 79.65-1.85 77.07-0.53 74.5 0.8 70.75 0.8L70.75 0.8Q66.75 0.8 64.02-0.25 61.3-1.3 59.67-3.5 58.05-5.7 57.35-9.05 56.65-12.4 56.65-17.05L56.65-17.05 56.65-27.2Q56.65-28.5 56.72-30.28 56.8-32.05 56.85-33L56.85-33Q55.95-32.95 55.05-32.93 54.15-32.9 53.25-32.85L53.25-32.85 53.25-35 64.45-35ZM106.64 0L92.04 0 92.04-1.65Q93.94-1.7 94.64-2.53 95.34-3.35 95.42-4.78 95.49-6.2 95.49-8.05L95.49-8.05 95.49-29.05Q95.49-30.4 95.54-31.38 95.59-32.35 95.64-33L95.64-33Q94.74-32.95 93.84-32.9 92.94-32.85 92.04-32.8L92.04-32.8 92.04-35Q94.79-35.05 97.57-35.08 100.34-35.1 103.34-35.1L103.34-35.1Q109.14-35.1 112.42-33.05 115.69-31 115.59-26.55L115.59-26.55Q115.59-24.95 114.67-23.35 113.74-21.75 111.92-20.53 110.09-19.3 107.34-18.8L107.34-18.8 107.34-18.7Q112.84-18.7 115.64-16.18 118.44-13.65 118.44-9.8L118.44-9.8Q118.44-6.75 116.89-4.55 115.34-2.35 112.69-1.18 110.04 0 106.64 0L106.64 0ZM99.69-2L99.69-2Q100.49-1.95 101.62-1.93 102.74-1.9 103.72-1.9 104.69-1.9 104.99-1.9L104.99-1.9Q108.84-1.9 111.22-3.83 113.59-5.75 113.59-9.5L113.59-9.5Q113.59-12.55 112.39-14.25 111.19-15.95 109.24-16.65 107.29-17.35 104.99-17.35L104.99-17.35Q103.49-17.35 102.27-17.32 101.04-17.3 99.84-17.2L99.84-17.2 99.84-5.9Q99.84-4.55 99.82-3.6 99.79-2.65 99.69-2ZM99.84-28.45L99.84-19.15 103.49-19.25Q106.34-19.3 107.99-20.43 109.64-21.55 110.37-23.25 111.09-24.95 111.04-26.8L111.04-26.8Q110.99-29.5 109.82-30.9 108.64-32.3 106.94-32.8 105.24-33.3 103.59-33.3L103.59-33.3Q101.94-33.3 101.14-32.85 100.34-32.4 100.09-31.35 99.84-30.3 99.84-28.45L99.84-28.45ZM132.79-35L132.79-33.35Q131.14-33.35 130.42-32.65 129.69-31.95 129.54-31.03 129.39-30.1 129.39-29.4L129.39-29.4 129.39-16.8Q129.39-14 129.77-11.38 130.14-8.75 131.19-6.65 132.24-4.55 134.32-3.3 136.39-2.05 139.74-2.05L139.74-2.05Q143.34-2.05 145.62-3.75 147.89-5.45 148.97-8.45 150.04-11.45 150.09-15.35L150.09-15.35 150.24-29.4Q150.24-30.4 150.29-31.33 150.34-32.25 150.39-33L150.39-33Q149.49-32.95 148.62-32.9 147.74-32.85 146.84-32.8L146.84-32.8 146.84-35 156.14-35 156.14-33.35Q154.24-33.3 153.52-32.5 152.79-31.7 152.72-30.35 152.64-29 152.64-27.2L152.64-27.2 152.54-15.6Q152.54-12.35 151.84-9.4 151.14-6.45 149.57-4.15 147.99-1.85 145.42-0.53 142.84 0.8 139.09 0.8L139.09 0.8Q135.09 0.8 132.37-0.25 129.64-1.3 128.02-3.5 126.39-5.7 125.69-9.05 124.99-12.4 124.99-17.05L124.99-17.05 124.99-27.2Q124.99-28.5 125.07-30.28 125.14-32.05 125.19-33L125.19-33Q124.29-32.95 123.39-32.93 122.49-32.9 121.59-32.85L121.59-32.85 121.59-35 132.79-35ZM189.54-23.85L187.74-23.85Q187.24-28.55 184.46-31.15 181.69-33.75 177.34-33.75L177.34-33.75Q174.69-33.75 172.36-32.63 170.04-31.5 168.29-29.4 166.54-27.3 165.54-24.35 164.54-21.4 164.54-17.7L164.54-17.7Q164.54-13 166.34-9.4 168.14-5.8 171.19-3.8 174.24-1.8 177.94-1.8L177.94-1.8Q181.19-1.8 184.34-3.28 187.49-4.75 189.49-7.55L189.49-7.55 190.79-6.5Q188.64-3.55 186.14-1.95 183.64-0.35 181.16 0.23 178.69 0.8 176.64 0.8L176.64 0.8Q172.89 0.8 169.76-0.55 166.64-1.9 164.36-4.33 162.09-6.75 160.86-9.98 159.64-13.2 159.64-16.95L159.64-16.95Q159.64-20.5 160.71-23.85 161.79-27.2 163.94-29.9 166.09-32.6 169.36-34.2 172.64-35.8 176.99-35.8L176.99-35.8Q179.79-35.8 182.29-35.05 184.79-34.3 187.09-32.75L187.09-32.75 186.84-35.45 189.54-35.45 189.54-23.85ZM220.93 0L208.18 0 208.18-1.65Q210.08-1.75 210.78-2.53 211.48-3.3 211.56-4.67 211.63-6.05 211.63-7.8L211.63-7.8 211.63-29.4Q211.63-30.4 211.68-31.33 211.73-32.25 211.78-33L211.78-33Q210.88-32.95 209.98-32.9 209.08-32.85 208.18-32.8L208.18-32.8 208.18-35 231.38-35 231.63-26.25 229.98-26.25Q229.98-29.2 229.03-30.73 228.08-32.25 226.53-32.77 224.98-33.3 223.08-33.25L223.08-33.25 219.43-33.15Q217.58-33.1 216.88-32.27 216.18-31.45 216.08-30.1 215.98-28.75 215.98-27L215.98-27 215.98-18.4 224.68-18.35 224.33-22.7 226.53-22.7 226.53-12.15 224.93-12.15Q224.93-14.4 224.31-15.35 223.68-16.3 222.38-16.5 221.08-16.7 218.98-16.6L218.98-16.6 215.98-16.45 215.98-5.95Q215.98-4.6 215.96-3.63 215.93-2.65 215.83-2L215.83-2Q216.68-2.05 217.53-2.08 218.38-2.1 219.23-2.15 220.08-2.2 220.93-2.2L220.93-2.2 220.93 0ZM252.58 0.8L252.58 0.8Q247.83 0.8 244.43-0.8 241.03-2.4 238.91-5.08 236.78-7.75 235.78-11 234.78-14.25 234.78-17.5L234.78-17.5Q234.78-20.65 235.83-23.88 236.88-27.1 239.06-29.8 241.23-32.5 244.51-34.15 247.78-35.8 252.18-35.8L252.18-35.8Q256.78-35.8 260.13-34.15 263.48-32.5 265.66-29.78 267.83-27.05 268.91-23.85 269.98-20.65 269.98-17.5L269.98-17.5Q269.98-14.4 268.93-11.18 267.88-7.95 265.71-5.23 263.53-2.5 260.28-0.85 257.03 0.8 252.58 0.8ZM252.68-1.25L252.68-1.25Q255.78-1.25 258.08-2.58 260.38-3.9 261.91-6.13 263.43-8.35 264.21-11.08 264.98-13.8 264.98-16.55L264.98-16.55Q264.98-19.65 264.13-22.7 263.28-25.75 261.63-28.25 259.98-30.75 257.56-32.27 255.13-33.8 252.03-33.8L252.03-33.8Q248.93-33.8 246.61-32.45 244.28-31.1 242.76-28.88 241.23-26.65 240.46-23.93 239.68-21.2 239.68-18.4L239.68-18.4Q239.68-15.65 240.46-12.65 241.23-9.65 242.83-7.05 244.43-4.45 246.88-2.85 249.33-1.25 252.68-1.25ZM302.43-24.45L300.53-24.45Q300.48-27.4 299.93-29.35 299.38-31.3 298-32.27 296.63-33.25 294.03-33.2L294.03-33.2 289.78-33.2 289.73-5.95Q289.73-4.6 289.7-3.63 289.68-2.65 289.58-2L289.58-2Q290.63-2.05 291.65-2.1 292.68-2.15 293.73-2.2L293.73-2.2 293.73 0 281.98 0 281.98-1.65Q283.88-1.75 284.55-2.55 285.23-3.35 285.3-4.73 285.38-6.1 285.38-7.8L285.38-7.8 285.43-33.15 280.28-33.1Q277.13-33.1 275.83-31 274.53-28.9 274.53-24.45L274.53-24.45 272.68-24.45 272.98-35 302.13-35 302.43-24.45ZM323.68 0.8L323.68 0.8Q318.93 0.8 315.53-0.8 312.13-2.4 310-5.08 307.88-7.75 306.88-11 305.88-14.25 305.88-17.5L305.88-17.5Q305.88-20.65 306.93-23.88 307.98-27.1 310.15-29.8 312.33-32.5 315.6-34.15 318.88-35.8 323.28-35.8L323.28-35.8Q327.88-35.8 331.23-34.15 334.58-32.5 336.75-29.78 338.93-27.05 340-23.85 341.08-20.65 341.08-17.5L341.08-17.5Q341.08-14.4 340.03-11.18 338.98-7.95 336.8-5.23 334.63-2.5 331.38-0.85 328.13 0.8 323.68 0.8ZM323.78-1.25L323.78-1.25Q326.88-1.25 329.18-2.58 331.48-3.9 333-6.13 334.53-8.35 335.3-11.08 336.08-13.8 336.08-16.55L336.08-16.55Q336.08-19.65 335.23-22.7 334.38-25.75 332.73-28.25 331.08-30.75 328.65-32.27 326.23-33.8 323.13-33.8L323.13-33.8Q320.03-33.8 317.7-32.45 315.38-31.1 313.85-28.88 312.33-26.65 311.55-23.93 310.78-21.2 310.78-18.4L310.78-18.4Q310.78-15.65 311.55-12.65 312.33-9.65 313.93-7.05 315.53-4.45 317.98-2.85 320.43-1.25 323.78-1.25ZM369.97 0.8L369.97 0.8Q367.77 0.8 365.67 0.28 363.57-0.25 361.9-1.43 360.22-2.6 359.22-4.48 358.22-6.35 358.22-9L358.22-9Q358.22-12.25 360.35-14.75 362.47-17.25 366.07-18.8L366.07-18.8Q364.77-20.5 363.92-21.98 363.07-23.45 362.67-24.93 362.27-26.4 362.27-27.95L362.27-27.95Q362.32-31.55 364.92-33.68 367.52-35.8 371.52-35.8L371.52-35.8Q374.07-35.8 375.94-34.88 377.82-33.95 378.85-32.38 379.87-30.8 379.87-28.8L379.87-28.8Q379.87-26.95 379.07-25.25 378.27-23.55 376.47-21.98 374.67-20.4 371.67-18.85L371.67-18.85Q373.02-17.45 374.65-15.75 376.27-14.05 377.92-12.43 379.57-10.8 380.92-9.5L380.92-9.5Q381.17-10.4 381.3-11.23 381.42-12.05 381.42-12.7L381.42-12.7Q381.42-13.85 381.1-14.98 380.77-16.1 379.94-16.88 379.12-17.65 377.62-17.7L377.62-17.7 377.62-19.35 386.37-19.35 386.37-17.3 382.22-17.5Q383.02-16.85 383.37-15.8 383.72-14.75 383.77-13.35L383.77-13.35Q383.82-12.4 383.6-10.93 383.37-9.45 382.77-7.85L382.77-7.85Q383.32-7.35 383.94-6.78 384.57-6.2 385.27-5.6L385.27-5.6Q387.52-3.6 389.15-2.63 390.77-1.65 391.57-1.65L391.57-1.65 391.57 0 386.92 0Q386.47 0 384.9-0.93 383.32-1.85 380.72-4.15L380.72-4.15Q379.12-2.1 376.5-0.65 373.87 0.8 369.97 0.8ZM370.57-1.7L370.57-1.7Q373.72-1.6 375.8-2.73 377.87-3.85 379.12-5.55L379.12-5.55Q378.77-5.9 378.42-6.23 378.07-6.55 377.67-6.9L377.67-6.9Q374.32-10.2 371.75-12.75 369.17-15.3 367.37-17.35L367.37-17.35Q365.77-16.4 364.87-15 363.97-13.6 363.6-12.2 363.22-10.8 363.22-9.75L363.22-9.75Q363.22-7 364.3-5.25 365.37-3.5 367.05-2.65 368.72-1.8 370.57-1.7ZM370.57-20.05L370.57-20.05Q373.37-21.9 374.72-24.18 376.07-26.45 376.07-28.65L376.07-28.65Q376.07-31.05 374.82-32.63 373.57-34.2 371.27-34.2L371.27-34.2Q369.22-34.2 367.85-32.68 366.47-31.15 366.47-28.35L366.47-28.35Q366.47-26.2 367.65-24.1 368.82-22 370.57-20.05ZM421.81 0.5L420.42 0.5 409.06-26.1Q407.96-28.65 407.51-30.23 407.06-31.8 406.92-32.9L406.92-32.9Q406.21-32.85 405.51-32.85 404.81-32.85 404.12-32.8L404.12-32.8 404.12-35 415.71-35 415.67-33.3Q413.17-33.15 412.67-31.78 412.17-30.4 413.17-27.9L413.17-27.9Q414.37-24.95 415.46-22.2 416.56-19.45 417.92-16.25L417.92-16.25Q419.12-13.45 420.24-10.88 421.37-8.3 421.96-6.6L421.96-6.6 422.06-6.6Q422.62-8.35 423.19-9.95 423.76-11.55 424.56-13.75L424.56-13.75Q426.06-17.95 427.09-20.85 428.12-23.75 428.87-25.8 429.62-27.85 430.12-29.3L430.12-29.3Q430.56-30.6 430.92-31.5 431.26-32.4 431.56-33L431.56-33Q430.62-32.95 429.67-32.9 428.71-32.85 427.71-32.8L427.71-32.8 427.71-35 437.87-35 437.87-33.35Q435.67-33.25 434.49-32.2 433.31-31.15 432.37-28.45L432.37-28.45Q432.26-28.2 432.12-27.78 431.96-27.35 431.62-26.4 431.26-25.45 430.62-23.63 429.96-21.8 428.84-18.7 427.71-15.6 425.99-10.9 424.26-6.2 421.81 0.5L421.81 0.5ZM450.96-35L450.96-33.35Q449.11-33.3 448.39-32.5 447.66-31.7 447.59-30.35 447.51-29 447.51-27.2L447.51-27.2 447.51-5.95Q447.51-4.6 447.49-3.63 447.46-2.65 447.36-2L447.36-2Q448.26-2.05 449.16-2.1 450.06-2.15 450.96-2.2L450.96-2.2 450.96 0 439.71 0 439.71-1.65Q441.61-1.75 442.31-2.53 443.01-3.3 443.09-4.67 443.16-6.05 443.16-7.8L443.16-7.8 443.16-29.4Q443.16-30.4 443.21-31.33 443.26-32.25 443.31-33L443.31-33Q442.41-32.95 441.51-32.9 440.61-32.85 439.71-32.8L439.71-32.8 439.71-35 450.96-35ZM456.46 0L456.46-1.65Q458.36-1.75 459.06-2.53 459.76-3.3 459.83-4.67 459.91-6.05 459.91-7.8L459.91-7.8 459.91-29.4Q459.91-30.4 459.96-31.33 460.01-32.25 460.06-33L460.06-33Q459.16-32.95 458.26-32.9 457.36-32.85 456.46-32.8L456.46-32.8 456.46-35 468.26-35.05Q472.76-35.05 476.51-34 480.26-32.95 482.98-30.78 485.71-28.6 487.19-25.28 488.66-21.95 488.66-17.45L488.66-17.45Q488.66-14 487.46-10.85 486.26-7.7 483.86-5.28 481.46-2.85 477.88-1.43 474.31 0 469.61 0L469.61 0 456.46 0ZM464.26-27.2L464.26-5.9Q464.26-4.55 464.23-3.6 464.21-2.65 464.11-2L464.11-2Q465.46-1.95 466.58-1.93 467.71-1.9 468.48-1.9 469.26-1.9 469.46-1.9L469.46-1.9Q472.71-1.9 475.33-3.1 477.96-4.3 479.83-6.43 481.71-8.55 482.73-11.43 483.76-14.3 483.76-17.65L483.76-17.65Q483.76-22.4 482.03-25.88 480.31-29.35 476.76-31.28 473.21-33.2 467.71-33.2L467.71-33.2Q465.86-33.2 465.13-32.45 464.41-31.7 464.33-30.35 464.26-29 464.26-27.2L464.26-27.2ZM512.26-12.95L510.61-12.95Q510.61-15.15 510.01-16.1 509.41-17.05 508.11-17.25 506.81-17.45 504.66-17.35L504.66-17.35 501.01-17.2 501.01-5.75Q501.01-4.4 500.98-3.45 500.96-2.5 500.86-1.85L500.86-1.85 510.41-2Q512.61-2.05 514.21-2.73 515.81-3.4 516.71-5.1 517.61-6.8 517.61-9.75L517.61-9.75 519.31-9.75 519.01 0 493.21 0 493.21-1.65Q495.11-1.75 495.81-2.53 496.51-3.3 496.58-4.67 496.66-6.05 496.66-7.8L496.66-7.8 496.66-29.4Q496.66-30.4 496.71-31.33 496.76-32.25 496.81-33L496.81-33Q495.91-32.95 495.01-32.9 494.11-32.85 493.21-32.8L493.21-32.8 493.21-35 517.26-35 517.51-26.25 515.86-26.25Q515.86-29.2 514.96-30.73 514.06-32.25 512.53-32.77 511.01-33.3 509.11-33.25L509.11-33.25 504.81-33.15Q502.96-33.1 502.16-32.45 501.36-31.8 501.18-30.53 501.01-29.25 501.01-27.2L501.01-27.2 501.01-19.2 510.41-19.15 510.06-23.45 512.26-23.45 512.26-12.95ZM541.65 0.8L541.65 0.8Q536.9 0.8 533.5-0.8 530.1-2.4 527.98-5.08 525.85-7.75 524.85-11 523.85-14.25 523.85-17.5L523.85-17.5Q523.85-20.65 524.9-23.88 525.95-27.1 528.13-29.8 530.3-32.5 533.58-34.15 536.85-35.8 541.25-35.8L541.25-35.8Q545.85-35.8 549.2-34.15 552.55-32.5 554.73-29.78 556.9-27.05 557.98-23.85 559.05-20.65 559.05-17.5L559.05-17.5Q559.05-14.4 558-11.18 556.95-7.95 554.78-5.23 552.6-2.5 549.35-0.85 546.1 0.8 541.65 0.8ZM541.75-1.25L541.75-1.25Q544.85-1.25 547.15-2.58 549.45-3.9 550.98-6.13 552.5-8.35 553.28-11.08 554.05-13.8 554.05-16.55L554.05-16.55Q554.05-19.65 553.2-22.7 552.35-25.75 550.7-28.25 549.05-30.75 546.63-32.27 544.2-33.8 541.1-33.8L541.1-33.8Q538-33.8 535.68-32.45 533.35-31.1 531.83-28.88 530.3-26.65 529.53-23.93 528.75-21.2 528.75-18.4L528.75-18.4Q528.75-15.65 529.53-12.65 530.3-9.65 531.9-7.05 533.5-4.45 535.95-2.85 538.4-1.25 541.75-1.25Z" opacity="1" transform="matrix(1,0,0,1,0,0)" fill="#ff26a0" class="wordmark-text-0" data-fill-palette-color="primary" id="text-0"></path></svg></g></svg></g></svg></g></svg></g><g transform="matrix(1,0,0,1,150.72849517241377,0)"><svg viewBox="0 0 94.06300965517241 94.06300965517241" height="94.06300965517241" width="94.06300965517241"><g><svg viewBox="0 0 94.06300965517241 94.06300965517241" height="94.06300965517241" width="94.06300965517241"><g transform="matrix(1,0,0,1,24.860640832256838,27.617462666334344)"><svg viewBox="0 0 44.34172799065873 38.82808432250372" height="38.82808432250372" width="44.34172799065873"><g><svg xmlns="http://www.w3.org/2000/svg" xmlns:xlink="http://www.w3.org/1999/xlink" version="1.1" x="0" y="0" viewBox="0.0020000000000024443 31.835289218943654 511.99431479009417 448.3307107810563" enable-background="new 0 0 512 512" xml:space="preserve" height="38.82808432250372" width="44.34172799065873" class="icon-cg-0" data-fill-palette-color="accent" id="cg-0"><g fill="#ff26a0" data-fill-palette-color="accent"><path d="M261.254 351.915c7.906 0 14.344-6.438 14.344-14.344s-6.438-14.344-14.344-14.344c-7.907 0-14.344 6.438-14.344 14.344S253.347 351.915 261.254 351.915z" fill="#ff26a0" data-fill-palette-color="accent"></path><path d="M59.332 278.243c0 5.016 4.078 9.109 9.109 9.109h59.312c5.031 0 9.125-4.094 9.125-9.109s-4.094-9.109-9.125-9.109H68.441C63.41 269.134 59.332 273.228 59.332 278.243z" fill="#ff26a0" data-fill-palette-color="accent"></path><path d="M261.254 420.837c45.906 0 83.25-37.344 83.25-83.266 0-45.906-37.344-83.265-83.25-83.265-45.907 0-83.282 37.359-83.282 83.265C177.972 383.493 215.347 420.837 261.254 420.837zM261.254 272.524c35.875 0 65.047 29.172 65.047 65.047s-29.172 65.047-65.047 65.047c-35.875 0-65.063-29.172-65.063-65.047S225.378 272.524 261.254 272.524z" fill="#ff26a0" data-fill-palette-color="accent"></path><path d="M496.676 161.697L143.738 33.229c-12.203-4.484-26.297 2.266-30.672 14.312L70.191 165.306H53.597c-13.188 0-23.938 10.75-23.938 23.953v5.719h-5.719c-13.203 0-23.938 10.75-23.938 23.938v237.312c0 13.188 10.734 23.938 23.938 23.938h365.141c9.984-0.031 19.016-6.344 22.422-15.75l99.062-272.187C515.004 180.041 508.77 166.353 496.676 161.697zM385.629 461.946H18.222v-248.75h29.656v-29.656h70.781v29.656h266.969V461.946zM403.848 432.228V218.916c0-13.188-10.75-23.938-23.938-23.938H136.878v-5.719c0-13.203-10.75-23.953-23.938-23.953H89.566l42.562-116.921 363.297 132.218L403.848 432.228z" fill="#ff26a0" data-fill-palette-color="accent"></path></g></svg></g></svg></g><g id="text-0"><path d="M4.636 30.411l-0.102 0.307c-0.556-0.122-1.038-0.074-1.446 0.145-0.408 0.219-0.695 0.578-0.862 1.076v0c-0.101 0.3-0.129 0.607-0.084 0.921 0.04 0.305 0.144 0.599 0.312 0.883 0.177 0.28 0.415 0.534 0.715 0.762 0.3 0.229 0.661 0.414 1.083 0.555v0c0.537 0.18 1.047 0.237 1.532 0.172 0.478-0.068 0.89-0.239 1.238-0.513 0.348-0.274 0.593-0.623 0.734-1.045v0c0.124-0.371 0.161-0.767 0.11-1.189-0.046-0.414-0.191-0.789-0.433-1.127v0l0.256-0.159c0.251 0.354 0.421 0.706 0.51 1.056 0.089 0.35 0.118 0.676 0.088 0.979-0.032 0.309-0.087 0.579-0.164 0.808v0c-0.143 0.428-0.352 0.796-0.625 1.103-0.273 0.307-0.591 0.545-0.954 0.715-0.369 0.168-0.763 0.26-1.181 0.276-0.411 0.019-0.835-0.045-1.269-0.191v0c-0.403-0.135-0.776-0.327-1.118-0.577-0.341-0.256-0.627-0.558-0.859-0.906-0.223-0.352-0.366-0.745-0.427-1.177-0.053-0.437 0.005-0.905 0.172-1.404v0c0.107-0.32 0.25-0.609 0.429-0.869 0.179-0.26 0.403-0.491 0.67-0.693v0l-0.473-0.116 0.154-0.46z" fill="#ff26a0" data-fill-palette-color="accent"></path><path d="M4.476 25.923l0.274 0.13c-0.095 0.201-0.116 0.363-0.063 0.486 0.048 0.12 0.142 0.22 0.283 0.301 0.143 0.075 0.315 0.161 0.516 0.256v0l3.472 1.648c0.152 0.072 0.28 0.133 0.384 0.182 0.107 0.058 0.191 0.109 0.252 0.153v0c0.04-0.1 0.082-0.204 0.124-0.31 0.04-0.1 0.083-0.199 0.13-0.297v0l0.356 0.169-0.875 1.845-0.274-0.13c0.092-0.21 0.114-0.375 0.066-0.494-0.051-0.114-0.149-0.213-0.295-0.297-0.143-0.075-0.312-0.159-0.508-0.252v0l-3.536-1.677c-0.11-0.052-0.212-0.104-0.306-0.157-0.101-0.055-0.189-0.105-0.265-0.148v0c-0.04 0.1-0.08 0.201-0.121 0.301-0.049 0.104-0.094 0.205-0.134 0.306v0l-0.356-0.169z" fill="#ff26a0" data-fill-palette-color="accent"></path><path d="M6.58 22.459l0.254 0.166c-0.107 0.164-0.15 0.305-0.13 0.422 0.026 0.121 0.078 0.22 0.158 0.295 0.089 0.074 0.167 0.133 0.234 0.177v0l1.916 1.246c0.283 0.184 0.568 0.345 0.856 0.484 0.291 0.133 0.579 0.216 0.864 0.248 0.279 0.029 0.551-0.019 0.817-0.144 0.26-0.128 0.501-0.362 0.721-0.701v0c0.235-0.362 0.343-0.714 0.325-1.055-0.025-0.346-0.152-0.67-0.381-0.972-0.235-0.306-0.549-0.59-0.941-0.853v0l-2.12-1.415c-0.102-0.066-0.196-0.131-0.283-0.196-0.092-0.068-0.174-0.129-0.243-0.182v0c-0.053 0.094-0.106 0.188-0.16 0.282-0.059 0.09-0.115 0.183-0.168 0.277v0l-0.33-0.215 0.92-1.416 0.255 0.166c-0.125 0.192-0.169 0.353-0.132 0.481 0.031 0.125 0.111 0.237 0.239 0.336 0.132 0.094 0.291 0.201 0.478 0.323v0l1.752 1.164c0.328 0.213 0.619 0.451 0.875 0.713 0.246 0.265 0.436 0.553 0.571 0.866 0.129 0.309 0.177 0.637 0.143 0.986-0.043 0.35-0.187 0.715-0.433 1.093v0c-0.261 0.401-0.532 0.707-0.815 0.918-0.287 0.207-0.598 0.319-0.93 0.336-0.327 0.021-0.684-0.043-1.071-0.19-0.383-0.153-0.809-0.382-1.278-0.686v0l-1.543-1.003c-0.136-0.088-0.289-0.192-0.461-0.312-0.177-0.123-0.312-0.219-0.404-0.287v0c-0.053 0.094-0.109 0.186-0.168 0.277-0.053 0.094-0.109 0.186-0.168 0.276v0l-0.322-0.209z" fill="#ff26a0" data-fill-palette-color="accent"></path><path d="M16.711 19.549l-1.77 1.972-0.226-0.203c0.153-0.171 0.221-0.322 0.205-0.455-0.021-0.128-0.093-0.255-0.214-0.382-0.121-0.118-0.264-0.251-0.43-0.4v0l-2.829-2.54c-0.125-0.113-0.229-0.21-0.31-0.291-0.086-0.086-0.154-0.156-0.204-0.211v0c-0.067 0.085-0.134 0.17-0.201 0.255-0.077 0.085-0.148 0.17-0.216 0.255v0l-0.293-0.264c0.22-0.255 0.441-0.506 0.661-0.752 0.22-0.255 0.452-0.518 0.695-0.789v0c0.468-0.522 0.926-0.845 1.373-0.969 0.451-0.129 0.871-0.011 1.258 0.355v0c0.145 0.131 0.255 0.301 0.328 0.512 0.064 0.211 0.077 0.449 0.039 0.714-0.034 0.26-0.141 0.535-0.321 0.826v0l0.015 0.014c0.446-0.497 0.894-0.769 1.345-0.817 0.451-0.048 0.849 0.083 1.196 0.393v0c0.276 0.248 0.449 0.53 0.518 0.846 0.079 0.316 0.063 0.641-0.048 0.976-0.106 0.33-0.297 0.649-0.571 0.955zM15.596 20.247v0c0.073-0.071 0.156-0.154 0.251-0.25 0.09-0.1 0.173-0.193 0.25-0.279 0.081-0.09 0.133-0.148 0.155-0.173v0c0.311-0.346 0.475-0.706 0.494-1.079 0.019-0.364-0.14-0.697-0.477-0.998v0c-0.276-0.248-0.536-0.386-0.781-0.417-0.255-0.029-0.491 0.017-0.709 0.139-0.223 0.117-0.427 0.278-0.611 0.484v0c-0.122 0.135-0.229 0.261-0.324 0.375-0.095 0.105-0.186 0.218-0.275 0.338v0l1.52 1.364c0.12 0.108 0.226 0.203 0.316 0.284 0.081 0.082 0.144 0.152 0.191 0.212zM12.049 17.022l1.257 1.128 0.424-0.503c0.225-0.26 0.354-0.511 0.389-0.751 0.035-0.241 0.004-0.463-0.094-0.668-0.092-0.2-0.223-0.372-0.393-0.516v0c-0.25-0.216-0.485-0.327-0.705-0.334-0.22-0.007-0.422 0.047-0.607 0.161-0.18 0.11-0.338 0.24-0.473 0.391v0c-0.131 0.145-0.21 0.274-0.237 0.385-0.018 0.111 0.007 0.219 0.075 0.326 0.077 0.106 0.199 0.233 0.364 0.381z" fill="#ff26a0" data-fill-palette-color="accent"></path><path d="M16.432 11.16l0.19 0.236c-0.152 0.123-0.237 0.243-0.254 0.361-0.013 0.123 0.006 0.233 0.058 0.33 0.061 0.098 0.118 0.178 0.168 0.241v0l1.435 1.779c0.212 0.262 0.433 0.504 0.663 0.725 0.236 0.217 0.484 0.385 0.744 0.505 0.256 0.114 0.53 0.153 0.822 0.116 0.287-0.041 0.588-0.189 0.903-0.442v0c0.336-0.271 0.548-0.572 0.636-0.903 0.084-0.336 0.064-0.684-0.061-1.042-0.129-0.364-0.339-0.731-0.63-1.103v0l-1.576-2.003c-0.076-0.094-0.145-0.186-0.208-0.274-0.067-0.093-0.125-0.176-0.174-0.249v0c-0.08 0.073-0.159 0.146-0.24 0.219-0.084 0.068-0.166 0.138-0.245 0.211v0l-0.248-0.307 1.315-1.06 0.19 0.236c-0.178 0.144-0.27 0.283-0.274 0.417-0.009 0.128 0.032 0.26 0.123 0.394 0.096 0.13 0.214 0.282 0.354 0.455v0l1.304 1.65c0.245 0.304 0.449 0.621 0.61 0.95 0.152 0.328 0.243 0.661 0.274 1 0.027 0.334-0.03 0.661-0.169 0.982-0.149 0.32-0.4 0.621-0.752 0.904v0c-0.373 0.3-0.726 0.507-1.059 0.62-0.338 0.108-0.667 0.118-0.988 0.031-0.317-0.082-0.637-0.253-0.959-0.513-0.317-0.264-0.651-0.614-1.003-1.049v0l-1.155-1.433c-0.102-0.126-0.215-0.272-0.341-0.439-0.13-0.172-0.229-0.305-0.295-0.398v0c-0.08 0.073-0.162 0.143-0.246 0.211-0.08 0.073-0.162 0.143-0.246 0.211v0l-0.241-0.299z" fill="#ff26a0" data-fill-palette-color="accent"></path><path d="M27.13 6.517l-0.282 0.16c-0.332-0.463-0.722-0.749-1.171-0.859-0.449-0.11-0.903-0.035-1.361 0.224v0c-0.276 0.156-0.502 0.366-0.679 0.628-0.174 0.254-0.294 0.542-0.358 0.866-0.056 0.326-0.048 0.674 0.022 1.045 0.07 0.371 0.215 0.75 0.435 1.137v0c0.279 0.493 0.62 0.877 1.024 1.151 0.4 0.269 0.822 0.418 1.264 0.447 0.442 0.029 0.857-0.067 1.244-0.286v0c0.34-0.193 0.633-0.463 0.877-0.811 0.242-0.339 0.386-0.714 0.431-1.127v0l0.297 0.052c-0.05 0.431-0.159 0.807-0.327 1.127-0.168 0.32-0.364 0.582-0.588 0.786-0.231 0.208-0.452 0.372-0.663 0.492v0c-0.393 0.223-0.794 0.356-1.202 0.402-0.408 0.045-0.804 0.01-1.188-0.107-0.387-0.122-0.741-0.316-1.062-0.583-0.318-0.261-0.591-0.591-0.817-0.991v0c-0.209-0.37-0.358-0.762-0.445-1.177-0.082-0.418-0.093-0.834-0.033-1.248 0.069-0.411 0.226-0.798 0.47-1.161 0.253-0.36 0.608-0.67 1.066-0.929v0c0.293-0.166 0.594-0.286 0.901-0.359 0.307-0.073 0.628-0.096 0.961-0.067v0l-0.275-0.403 0.423-0.239z" fill="#ff26a0" data-fill-palette-color="accent"></path><path d="M35.459 7.99l-2.212 0.683-0.09-0.29c0.217-0.074 0.353-0.169 0.41-0.285 0.049-0.114 0.056-0.254 0.018-0.419-0.041-0.157-0.094-0.338-0.157-0.544v0l-1.155-3.739c-0.036-0.116-0.066-0.226-0.092-0.331-0.027-0.111-0.051-0.21-0.07-0.296v0c-0.101 0.038-0.202 0.077-0.303 0.114-0.11 0.034-0.215 0.07-0.316 0.109v0l-0.116-0.377 4.019-1.242 0.507 1.505-0.28 0.087c-0.105-0.341-0.24-0.582-0.403-0.722-0.165-0.147-0.347-0.221-0.545-0.224-0.2-0.009-0.409 0.024-0.626 0.099v0l-0.622 0.213c-0.211 0.072-0.343 0.169-0.397 0.292-0.047 0.12-0.054 0.26-0.019 0.418 0.035 0.159 0.083 0.338 0.145 0.538v0l0.46 1.488 1.51-0.456-0.291-0.736 0.377-0.116 0.564 1.826-0.28 0.086c-0.08-0.258-0.172-0.43-0.277-0.518-0.105-0.088-0.235-0.121-0.391-0.101-0.161 0.028-0.358 0.086-0.592 0.172v0l-0.516 0.181 0.561 1.816c0.05 0.161 0.092 0.296 0.126 0.406 0.029 0.118 0.049 0.214 0.057 0.289v0c0.101-0.038 0.2-0.072 0.297-0.102 0.095-0.036 0.189-0.073 0.284-0.109 0.097-0.03 0.196-0.061 0.299-0.092v0z" fill="#ff26a0" data-fill-palette-color="accent"></path><path d="M41.44 6.932v0c-0.567 0.084-1.068 0.063-1.502-0.064-0.435-0.133-0.804-0.341-1.105-0.623-0.301-0.283-0.54-0.608-0.717-0.978-0.177-0.369-0.295-0.75-0.353-1.144v0c-0.055-0.373-0.048-0.763 0.021-1.168 0.069-0.406 0.211-0.788 0.424-1.146 0.213-0.359 0.498-0.667 0.855-0.924 0.365-0.252 0.811-0.416 1.337-0.495v0c0.547-0.081 1.035-0.054 1.464 0.08 0.43 0.141 0.799 0.355 1.107 0.644 0.307 0.282 0.556 0.606 0.747 0.973 0.183 0.361 0.302 0.729 0.357 1.102v0c0.055 0.373 0.048 0.763-0.021 1.169-0.069 0.406-0.211 0.788-0.423 1.146-0.212 0.365-0.496 0.677-0.854 0.934-0.358 0.251-0.804 0.415-1.338 0.494zM41.406 6.569v0c0.367-0.054 0.678-0.182 0.935-0.383 0.25-0.201 0.445-0.447 0.586-0.741 0.141-0.293 0.234-0.607 0.28-0.941 0.045-0.341 0.043-0.678-0.007-1.011v0c-0.054-0.367-0.159-0.726-0.313-1.079-0.153-0.345-0.352-0.653-0.596-0.923-0.238-0.272-0.517-0.476-0.837-0.613-0.314-0.144-0.658-0.189-1.032-0.133v0c-0.367 0.054-0.678 0.185-0.933 0.394-0.256 0.201-0.455 0.449-0.596 0.742-0.141 0.293-0.234 0.607-0.28 0.941-0.045 0.341-0.043 0.678 0.007 1.011v0c0.049 0.333 0.147 0.67 0.292 1.01 0.147 0.346 0.337 0.662 0.57 0.948 0.239 0.278 0.519 0.492 0.841 0.642 0.322 0.15 0.683 0.195 1.083 0.136z" fill="#ff26a0" data-fill-palette-color="accent"></path><path d="M50.836 2.016l-0.344-0.006c0-0.357-0.031-0.655-0.094-0.892-0.063-0.237-0.177-0.415-0.343-0.533-0.159-0.125-0.398-0.187-0.715-0.186v0l-0.768-0.015-0.108 4.933c-0.003 0.169-0.006 0.31-0.008 0.425-0.009 0.121-0.021 0.219-0.036 0.293v0c0.128-0.004 0.256-0.008 0.385-0.013 0.121-0.004 0.246-0.005 0.374-0.003v0l-0.008 0.395-2.133-0.043 0.006-0.303c0.229-0.002 0.385-0.053 0.468-0.152 0.089-0.093 0.139-0.223 0.149-0.392 0.01-0.162 0.017-0.347 0.021-0.556v0l0.101-4.59-0.93-0.008c-0.384-0.008-0.656 0.115-0.817 0.368-0.16 0.246-0.245 0.639-0.255 1.178v0l-0.334-0.006 0.088-1.91 5.278 0.104z" fill="#ff26a0" data-fill-palette-color="accent"></path><path d="M54.851 7.299v0c-0.564-0.102-1.031-0.283-1.402-0.542-0.37-0.266-0.652-0.581-0.846-0.945-0.194-0.364-0.316-0.749-0.366-1.156-0.05-0.406-0.039-0.805 0.032-1.197v0c0.067-0.371 0.199-0.738 0.395-1.1 0.196-0.362 0.452-0.678 0.769-0.949 0.317-0.271 0.685-0.472 1.106-0.601 0.426-0.121 0.901-0.134 1.426-0.039v0c0.544 0.099 0.997 0.281 1.36 0.545 0.362 0.271 0.643 0.593 0.842 0.965 0.201 0.365 0.333 0.752 0.396 1.161 0.057 0.401 0.052 0.787-0.015 1.159v0c-0.067 0.371-0.199 0.738-0.395 1.1-0.196 0.362-0.452 0.678-0.769 0.949-0.318 0.278-0.687 0.482-1.108 0.611-0.42 0.122-0.895 0.136-1.425 0.039zM54.936 6.945v0c0.365 0.066 0.701 0.045 1.008-0.064 0.301-0.11 0.565-0.281 0.792-0.514 0.227-0.233 0.416-0.5 0.567-0.801 0.152-0.308 0.258-0.628 0.318-0.96v0c0.066-0.365 0.083-0.739 0.05-1.121-0.034-0.376-0.124-0.732-0.269-1.067-0.138-0.333-0.337-0.616-0.596-0.848-0.251-0.238-0.563-0.39-0.934-0.458v0c-0.365-0.066-0.702-0.042-1.011 0.074-0.308 0.109-0.575 0.279-0.802 0.512-0.227 0.233-0.416 0.5-0.567 0.801-0.152 0.308-0.258 0.628-0.318 0.96v0c-0.06 0.332-0.076 0.682-0.047 1.05 0.028 0.375 0.106 0.735 0.235 1.081 0.137 0.34 0.334 0.633 0.591 0.878 0.257 0.245 0.584 0.404 0.983 0.477z" fill="#ff26a0" data-fill-palette-color="accent"></path><path d="M63.606 10.015v0c-0.245-0.112-0.469-0.247-0.67-0.406-0.208-0.161-0.373-0.351-0.496-0.57-0.125-0.213-0.197-0.445-0.216-0.698-0.015-0.259 0.043-0.533 0.174-0.821v0c0.162-0.356 0.423-0.619 0.782-0.789 0.359-0.17 0.777-0.25 1.253-0.24v0c-0.057-0.248-0.097-0.478-0.12-0.688-0.019-0.201-0.013-0.395 0.02-0.58 0.03-0.179 0.084-0.355 0.162-0.526v0c0.185-0.39 0.472-0.637 0.86-0.742 0.395-0.102 0.813-0.052 1.254 0.149v0c0.276 0.126 0.496 0.285 0.66 0.479 0.155 0.197 0.252 0.407 0.29 0.632 0.032 0.222-0.002 0.444-0.102 0.664v0c-0.092 0.202-0.225 0.379-0.397 0.53-0.176 0.142-0.401 0.254-0.676 0.337-0.277 0.088-0.619 0.14-1.026 0.155v0c0.077 0.22 0.165 0.468 0.262 0.742 0.094 0.265 0.19 0.527 0.287 0.786 0.1 0.268 0.192 0.506 0.274 0.714v0c0.069-0.087 0.134-0.172 0.195-0.256 0.054-0.086 0.098-0.166 0.131-0.24v0c0.056-0.123 0.093-0.254 0.113-0.393 0.019-0.139 0.002-0.273-0.051-0.401-0.047-0.125-0.152-0.228-0.314-0.31v0l0.125-0.276 1.445 0.658-0.155 0.34-0.673-0.351c0.059 0.116 0.08 0.24 0.063 0.373-0.016 0.133-0.056 0.278-0.12 0.435v0c-0.041 0.107-0.111 0.235-0.208 0.383-0.1 0.154-0.223 0.302-0.368 0.443v0c0.036 0.083 0.073 0.174 0.109 0.272 0.04 0.092 0.084 0.19 0.133 0.294v0c0.145 0.333 0.282 0.592 0.413 0.777 0.13 0.185 0.242 0.299 0.333 0.341v0l-0.125 0.276-0.773-0.352c-0.049-0.022-0.136-0.125-0.26-0.307-0.127-0.176-0.278-0.456-0.452-0.839v0c-0.272 0.143-0.589 0.228-0.95 0.256-0.361 0.028-0.756-0.056-1.186-0.251zM63.892 9.656v0c0.341 0.163 0.653 0.234 0.936 0.215 0.283-0.019 0.537-0.089 0.761-0.209v0c-0.023-0.063-0.045-0.121-0.065-0.174-0.023-0.047-0.046-0.102-0.069-0.165v0c-0.203-0.53-0.383-0.997-0.54-1.401-0.16-0.414-0.286-0.779-0.379-1.095v0c-0.219 0.026-0.416 0.092-0.59 0.198-0.168 0.109-0.305 0.231-0.412 0.368-0.116 0.14-0.199 0.265-0.249 0.375v0c-0.14 0.307-0.195 0.582-0.165 0.825 0.03 0.243 0.115 0.456 0.254 0.638 0.142 0.176 0.315 0.317 0.518 0.425zM65.271 6.628v0c0.399-0.063 0.729-0.186 0.991-0.371 0.262-0.184 0.447-0.396 0.556-0.635v0c0.12-0.264 0.152-0.512 0.095-0.746-0.06-0.242-0.216-0.421-0.467-0.535v0c-0.227-0.103-0.453-0.103-0.679 0.002-0.229 0.096-0.413 0.297-0.553 0.604v0c-0.109 0.239-0.151 0.502-0.125 0.787 0.023 0.292 0.083 0.59 0.182 0.894z" fill="#ff26a0" data-fill-palette-color="accent"></path><path d="M72.402 15.206l-0.208-0.16 1.329-5.072c0.079-0.322 0.155-0.575 0.227-0.757 0.077-0.188 0.149-0.336 0.217-0.445v0c-0.069-0.054-0.139-0.107-0.207-0.161-0.064-0.05-0.133-0.098-0.207-0.147v0l0.242-0.312 1.663 1.287-0.193 0.234c-0.247-0.166-0.446-0.2-0.598-0.104-0.147 0.091-0.265 0.293-0.355 0.608v0c-0.107 0.369-0.208 0.726-0.303 1.069-0.105 0.345-0.208 0.721-0.31 1.128v0c-0.094 0.353-0.183 0.694-0.266 1.022-0.083 0.328-0.159 0.597-0.229 0.807v0l0.016 0.013c0.185-0.129 0.362-0.248 0.531-0.357 0.173-0.113 0.38-0.243 0.621-0.389v0c0.458-0.294 0.842-0.542 1.152-0.745 0.306-0.198 0.573-0.366 0.801-0.506 0.222-0.144 0.411-0.266 0.565-0.367v0c0.138-0.09 0.258-0.163 0.362-0.219 0.098-0.061 0.183-0.11 0.255-0.148v0c-0.095-0.065-0.19-0.13-0.285-0.195-0.091-0.07-0.186-0.14-0.286-0.208v0l0.242-0.312 1.455 1.126-0.185 0.24c-0.212-0.156-0.413-0.226-0.604-0.211-0.19 0.015-0.43 0.115-0.719 0.301v0c-0.031 0.018-0.069 0.04-0.114 0.065-0.049 0.03-0.125 0.078-0.226 0.144-0.102 0.066-0.253 0.162-0.454 0.288-0.191 0.125-0.458 0.294-0.8 0.506-0.338 0.216-0.762 0.484-1.275 0.804-0.512 0.32-1.13 0.711-1.854 1.173z" fill="#ff26a0" data-fill-palette-color="accent"></path><path d="M81.194 14.291l-0.209 0.22c-0.161-0.154-0.308-0.225-0.441-0.213-0.129 0.008-0.254 0.065-0.376 0.173-0.117 0.112-0.252 0.249-0.405 0.41v0l-2.658 2.775c-0.117 0.122-0.214 0.224-0.293 0.307-0.089 0.083-0.164 0.147-0.225 0.191v0c0.083 0.07 0.168 0.142 0.255 0.216 0.083 0.07 0.163 0.142 0.241 0.217v0l-0.273 0.285-1.476-1.413 0.21-0.219c0.17 0.154 0.32 0.227 0.448 0.219 0.124-0.012 0.249-0.075 0.375-0.187 0.117-0.112 0.25-0.246 0.399-0.402v0l2.706-2.827c0.084-0.088 0.166-0.168 0.245-0.241 0.084-0.078 0.159-0.147 0.225-0.206v0c-0.083-0.07-0.165-0.139-0.248-0.209-0.083-0.079-0.165-0.154-0.248-0.223v0l0.273-0.285z" fill="#ff26a0" data-fill-palette-color="accent"></path><path d="M77.742 19.927l0.237-0.19c0.149 0.174 0.288 0.266 0.416 0.275 0.124 0.004 0.256-0.042 0.396-0.137 0.13-0.096 0.279-0.212 0.447-0.348v0l3.047-2.455c0.094-0.076 0.186-0.145 0.275-0.208 0.093-0.067 0.176-0.125 0.248-0.175v0c-0.073-0.08-0.146-0.16-0.218-0.239-0.072-0.089-0.144-0.174-0.218-0.254v0l0.307-0.247 1.353 1.663c0.338 0.42 0.599 0.846 0.784 1.278 0.188 0.437 0.281 0.864 0.279 1.281 0.003 0.422-0.094 0.829-0.29 1.221-0.205 0.39-0.517 0.755-0.937 1.093v0c-0.325 0.262-0.682 0.459-1.07 0.589-0.387 0.121-0.784 0.16-1.192 0.117-0.413-0.04-0.82-0.175-1.223-0.405-0.407-0.226-0.788-0.559-1.143-1v0zM82.465 17.94l-3 2.417c-0.126 0.102-0.236 0.19-0.33 0.266-0.093 0.067-0.173 0.118-0.24 0.155v0c0.101 0.135 0.19 0.258 0.27 0.367 0.085 0.105 0.157 0.194 0.216 0.267 0.059 0.073 0.095 0.118 0.107 0.134v0c0.245 0.304 0.525 0.534 0.84 0.687 0.309 0.158 0.635 0.246 0.978 0.264 0.343 0.018 0.69-0.036 1.039-0.162 0.344-0.121 0.673-0.309 0.988-0.562v0c0.446-0.36 0.769-0.754 0.969-1.183 0.199-0.42 0.252-0.87 0.159-1.35-0.087-0.484-0.338-0.983-0.752-1.497v0c-0.14-0.173-0.274-0.264-0.402-0.274-0.123-0.013-0.252 0.026-0.386 0.117-0.13 0.096-0.282 0.214-0.456 0.354z" fill="#ff26a0" data-fill-palette-color="accent"></path><path d="M85.755 27.315l-0.152-0.262c0.228-0.131 0.373-0.258 0.436-0.38 0.062-0.121 0.066-0.256 0.012-0.403-0.054-0.148-0.153-0.332-0.295-0.554v0l-0.355-0.554-1.796 1.034c-0.14 0.081-0.26 0.15-0.359 0.207-0.103 0.051-0.192 0.091-0.27 0.12v0l0.89 1.484c0.14 0.23 0.293 0.407 0.457 0.53 0.168 0.129 0.366 0.19 0.595 0.182 0.235-0.011 0.507-0.105 0.817-0.283v0l0.156 0.271-1.563 0.831-2.332-4.048 0.262-0.152c0.12 0.195 0.243 0.307 0.369 0.336 0.122 0.023 0.26-0.002 0.413-0.074 0.144-0.075 0.309-0.166 0.495-0.274v0l3.391-1.953c0.105-0.061 0.206-0.115 0.303-0.163 0.103-0.051 0.194-0.096 0.273-0.134v0c-0.06-0.09-0.119-0.18-0.179-0.27-0.057-0.099-0.116-0.194-0.175-0.284v0l0.342-0.197 2.175 3.777-1.35 0.836-0.152-0.263c0.31-0.178 0.516-0.36 0.621-0.544 0.11-0.188 0.144-0.378 0.102-0.572-0.032-0.191-0.109-0.385-0.229-0.58v0l-0.407-0.665c-0.117-0.189-0.234-0.305-0.351-0.346-0.115-0.051-0.244-0.046-0.388 0.014-0.144 0.06-0.325 0.152-0.541 0.276v0l-1.253 0.722 0.839 1.477 0.644-0.441 0.202 0.35z" fill="#ff26a0" data-fill-palette-color="accent"></path><path d="M85.798 33.732v0c-0.201-0.537-0.286-1.03-0.253-1.481 0.039-0.454 0.164-0.857 0.377-1.211 0.213-0.354 0.481-0.656 0.805-0.907 0.323-0.251 0.671-0.446 1.044-0.586v0c0.353-0.133 0.736-0.208 1.147-0.225 0.411-0.017 0.814 0.04 1.209 0.173 0.395 0.132 0.756 0.346 1.083 0.641 0.323 0.304 0.578 0.705 0.765 1.204v0c0.194 0.518 0.271 1 0.23 1.447-0.047 0.45-0.179 0.856-0.396 1.218-0.211 0.36-0.475 0.672-0.794 0.935-0.315 0.255-0.649 0.449-1.003 0.581v0c-0.353 0.133-0.736 0.208-1.147 0.225-0.411 0.017-0.814-0.04-1.209-0.172-0.402-0.13-0.766-0.343-1.093-0.638-0.32-0.297-0.575-0.699-0.765-1.204zM86.146 33.624v0c0.13 0.347 0.321 0.625 0.572 0.833 0.249 0.202 0.531 0.341 0.848 0.416 0.316 0.076 0.643 0.101 0.978 0.076 0.342-0.028 0.671-0.101 0.988-0.219v0c0.347-0.13 0.677-0.308 0.988-0.533 0.305-0.223 0.564-0.482 0.777-0.778 0.215-0.29 0.356-0.605 0.423-0.947 0.075-0.338 0.046-0.683-0.087-1.037v0c-0.13-0.347-0.324-0.624-0.581-0.829-0.251-0.208-0.535-0.35-0.851-0.426-0.316-0.076-0.643-0.101-0.979-0.076-0.342 0.028-0.671 0.101-0.987 0.219v0c-0.316 0.118-0.624 0.285-0.926 0.499-0.308 0.216-0.577 0.468-0.807 0.756-0.222 0.292-0.372 0.611-0.45 0.958-0.079 0.346-0.047 0.709 0.094 1.088z" fill="#ff26a0" data-fill-palette-color="accent"></path><path d="M8.53 64.191l-0.102-0.307c0.518-0.237 0.873-0.566 1.066-0.987 0.193-0.42 0.207-0.88 0.04-1.378v0c-0.101-0.3-0.263-0.562-0.487-0.786-0.216-0.219-0.476-0.392-0.782-0.517-0.309-0.117-0.653-0.176-1.03-0.177-0.377-0.002-0.777 0.068-1.198 0.209v0c-0.537 0.18-0.979 0.442-1.326 0.786-0.341 0.342-0.567 0.727-0.68 1.155-0.112 0.429-0.098 0.854 0.044 1.276v0c0.124 0.371 0.334 0.709 0.628 1.016 0.286 0.302 0.628 0.515 1.024 0.638v0l-0.108 0.282c-0.414-0.132-0.762-0.31-1.043-0.536-0.282-0.226-0.502-0.468-0.66-0.728-0.16-0.266-0.279-0.514-0.356-0.745v0c-0.143-0.428-0.198-0.847-0.165-1.256 0.034-0.409 0.144-0.791 0.331-1.146 0.193-0.356 0.452-0.667 0.775-0.931 0.317-0.263 0.693-0.467 1.128-0.613v0c0.403-0.135 0.816-0.206 1.241-0.213 0.426-0.001 0.837 0.068 1.231 0.206 0.39 0.147 0.74 0.374 1.05 0.683 0.305 0.317 0.542 0.725 0.709 1.224v0c0.107 0.32 0.167 0.637 0.18 0.953 0.013 0.316-0.026 0.634-0.117 0.956v0l0.448-0.193 0.154 0.461z" fill="#ff26a0" data-fill-palette-color="accent"></path><path d="M11.841 66.489l-0.274 0.13c-0.095-0.201-0.208-0.319-0.337-0.355-0.123-0.039-0.26-0.03-0.412 0.027-0.149 0.063-0.324 0.143-0.525 0.238v0l-3.472 1.647c-0.152 0.072-0.28 0.133-0.384 0.182-0.113 0.046-0.205 0.079-0.278 0.099v0c0.052 0.095 0.106 0.192 0.162 0.292 0.052 0.095 0.102 0.191 0.147 0.289v0l-0.356 0.169-0.875-1.846 0.274-0.13c0.104 0.204 0.218 0.326 0.34 0.364 0.12 0.033 0.259 0.019 0.417-0.041 0.149-0.063 0.321-0.141 0.516-0.233v0l3.536-1.678c0.11-0.052 0.215-0.098 0.315-0.138 0.106-0.043 0.201-0.08 0.283-0.112v0c-0.052-0.095-0.105-0.189-0.157-0.284-0.049-0.104-0.1-0.203-0.152-0.297v0l0.356-0.169z" fill="#ff26a0" data-fill-palette-color="accent"></path><path d="M13.413 69.003l-0.254 0.165c-0.107-0.164-0.218-0.261-0.333-0.29-0.121-0.026-0.233-0.018-0.334 0.025-0.103 0.051-0.189 0.099-0.257 0.142v0l-1.916 1.246c-0.283 0.184-0.546 0.379-0.789 0.586-0.24 0.212-0.432 0.442-0.578 0.689-0.139 0.243-0.206 0.512-0.199 0.805 0.012 0.29 0.128 0.605 0.348 0.944v0c0.235 0.362 0.513 0.603 0.833 0.725 0.326 0.118 0.674 0.133 1.043 0.045 0.375-0.091 0.762-0.262 1.161-0.514v0l2.153-1.363c0.102-0.066 0.2-0.126 0.294-0.179 0.1-0.057 0.188-0.106 0.265-0.149v0c-0.064-0.087-0.129-0.174-0.193-0.26-0.059-0.09-0.12-0.179-0.185-0.266v0l0.331-0.215 0.92 1.416-0.254 0.165c-0.125-0.192-0.254-0.297-0.386-0.315-0.127-0.022-0.262 0.005-0.405 0.082-0.139 0.083-0.302 0.184-0.489 0.306v0l-1.774 1.129c-0.328 0.213-0.664 0.383-1.007 0.511-0.342 0.118-0.683 0.175-1.023 0.17-0.335-0.008-0.654-0.097-0.959-0.269-0.303-0.181-0.577-0.461-0.824-0.839v0c-0.261-0.401-0.431-0.773-0.509-1.117-0.073-0.347-0.049-0.676 0.07-0.987 0.114-0.307 0.316-0.608 0.608-0.901 0.295-0.288 0.677-0.585 1.146-0.89v0l1.543-1.004c0.136-0.088 0.293-0.186 0.472-0.294 0.185-0.112 0.327-0.196 0.426-0.254v0c-0.064-0.087-0.126-0.175-0.184-0.265-0.064-0.087-0.126-0.175-0.185-0.266v0l0.322-0.21z" fill="#ff26a0" data-fill-palette-color="accent"></path><path d="M13.34 79.383l-1.769-1.972 0.225-0.203c0.153 0.171 0.297 0.255 0.431 0.253 0.129-0.007 0.264-0.065 0.403-0.172 0.13-0.108 0.278-0.236 0.443-0.384v0l2.829-2.54c0.125-0.113 0.233-0.205 0.323-0.276 0.095-0.076 0.172-0.136 0.232-0.181v0c-0.077-0.076-0.154-0.152-0.231-0.228-0.077-0.085-0.153-0.166-0.231-0.241v0l0.294-0.264c0.23 0.246 0.456 0.492 0.676 0.739 0.23 0.246 0.467 0.505 0.71 0.776v0c0.468 0.522 0.74 1.011 0.816 1.469 0.08 0.463-0.083 0.867-0.488 1.212v0c-0.145 0.131-0.327 0.221-0.544 0.272-0.217 0.041-0.455 0.028-0.714-0.039-0.254-0.061-0.517-0.197-0.788-0.408v0l-0.015 0.014c0.446 0.497 0.668 0.972 0.668 1.425-0.001 0.453-0.174 0.836-0.52 1.146v0c-0.276 0.248-0.575 0.389-0.896 0.425-0.322 0.045-0.644-0.006-0.966-0.153-0.317-0.141-0.613-0.365-0.888-0.67zM12.767 78.199v0c0.063 0.08 0.136 0.172 0.221 0.277 0.09 0.1 0.173 0.193 0.25 0.278 0.081 0.09 0.133 0.148 0.156 0.173v0c0.311 0.346 0.651 0.548 1.02 0.607 0.36 0.058 0.708-0.064 1.043-0.367v0c0.276-0.248 0.442-0.492 0.498-0.732 0.056-0.25 0.036-0.49-0.061-0.719-0.092-0.234-0.231-0.454-0.416-0.66v0c-0.122-0.135-0.234-0.256-0.338-0.362-0.095-0.105-0.196-0.209-0.306-0.31v0l-1.52 1.364c-0.12 0.108-0.226 0.203-0.316 0.284-0.09 0.072-0.167 0.127-0.231 0.167zM16.354 75.019l-1.257 1.128 0.455 0.476c0.235 0.251 0.47 0.407 0.705 0.468 0.235 0.06 0.46 0.053 0.674-0.021 0.209-0.07 0.394-0.182 0.555-0.335v0c0.241-0.226 0.377-0.448 0.408-0.666 0.031-0.218-0.001-0.425-0.095-0.621-0.09-0.191-0.202-0.362-0.338-0.512v0c-0.131-0.145-0.25-0.238-0.357-0.277-0.108-0.03-0.219-0.017-0.332 0.039-0.113 0.066-0.253 0.173-0.418 0.321z" fill="#ff26a0" data-fill-palette-color="accent"></path><path d="M21.549 78.401l-0.191 0.236c-0.152-0.123-0.288-0.18-0.406-0.172-0.123 0.013-0.227 0.055-0.31 0.126-0.082 0.081-0.149 0.153-0.2 0.216v0l-1.435 1.779c-0.212 0.262-0.401 0.53-0.568 0.802-0.162 0.276-0.274 0.554-0.335 0.834-0.057 0.275-0.037 0.551 0.06 0.828 0.101 0.272 0.309 0.535 0.623 0.789v0c0.336 0.271 0.675 0.414 1.017 0.43 0.346 0.011 0.682-0.083 1.006-0.28 0.328-0.203 0.643-0.486 0.945-0.85v0l1.623-1.964c0.076-0.094 0.151-0.182 0.224-0.261 0.077-0.085 0.146-0.159 0.206-0.224v0c-0.088-0.062-0.176-0.125-0.265-0.187-0.084-0.068-0.17-0.133-0.258-0.196v0l0.248-0.307 1.314 1.061-0.19 0.236c-0.178-0.144-0.333-0.204-0.466-0.181-0.127 0.018-0.247 0.086-0.359 0.204-0.107 0.122-0.23 0.269-0.37 0.443v0l-1.336 1.624c-0.245 0.304-0.512 0.57-0.799 0.798-0.288 0.218-0.595 0.378-0.919 0.48-0.32 0.097-0.652 0.111-0.995 0.041-0.344-0.078-0.692-0.259-1.044-0.542v0c-0.373-0.3-0.649-0.602-0.83-0.904-0.177-0.307-0.257-0.627-0.24-0.959 0.013-0.327 0.112-0.676 0.298-1.046 0.191-0.366 0.462-0.766 0.814-1.202v0l1.155-1.433c0.102-0.126 0.221-0.268 0.357-0.426 0.141-0.164 0.25-0.288 0.327-0.373v0c-0.088-0.062-0.174-0.128-0.258-0.195-0.088-0.062-0.174-0.128-0.259-0.196v0l0.241-0.299z" fill="#ff26a0" data-fill-palette-color="accent"></path><path d="M29.154 85.815l-0.282-0.159c0.226-0.523 0.271-1.005 0.134-1.447-0.137-0.442-0.435-0.792-0.893-1.052v0c-0.276-0.156-0.572-0.242-0.887-0.258-0.307-0.019-0.616 0.027-0.927 0.138-0.308 0.12-0.603 0.305-0.884 0.556-0.282 0.251-0.532 0.57-0.752 0.958v0c-0.279 0.493-0.433 0.983-0.461 1.47-0.025 0.482 0.064 0.92 0.268 1.314 0.203 0.394 0.498 0.7 0.885 0.92v0c0.34 0.193 0.722 0.304 1.147 0.335 0.415 0.033 0.811-0.037 1.188-0.21v0l0.108 0.281c-0.396 0.179-0.774 0.279-1.134 0.3-0.36 0.021-0.686-0.013-0.978-0.101-0.297-0.091-0.551-0.196-0.763-0.315v0c-0.393-0.223-0.714-0.497-0.962-0.824-0.249-0.327-0.422-0.684-0.52-1.073-0.094-0.394-0.11-0.798-0.046-1.212 0.06-0.407 0.203-0.811 0.429-1.209v0c0.209-0.37 0.469-0.699 0.78-0.988 0.317-0.286 0.668-0.509 1.054-0.67 0.388-0.152 0.801-0.217 1.237-0.194 0.439 0.032 0.887 0.177 1.345 0.436v0c0.293 0.166 0.55 0.362 0.771 0.588 0.221 0.226 0.405 0.489 0.553 0.789v0l0.204-0.443 0.422 0.24z" fill="#ff26a0" data-fill-palette-color="accent"></path><path d="M34.123 92.244l-2.213-0.683 0.09-0.29c0.221 0.061 0.387 0.06 0.499-0.005 0.105-0.066 0.189-0.178 0.251-0.335 0.054-0.153 0.113-0.332 0.177-0.538v0l1.155-3.739c0.036-0.116 0.073-0.224 0.111-0.326 0.04-0.108 0.077-0.202 0.109-0.284v0c-0.105-0.025-0.21-0.051-0.315-0.076-0.11-0.034-0.217-0.063-0.322-0.089v0l0.116-0.376 4.02 1.241-0.43 1.529-0.28-0.087c0.105-0.341 0.13-0.616 0.074-0.823-0.054-0.214-0.162-0.378-0.324-0.492-0.16-0.12-0.351-0.211-0.572-0.272v0l-0.634-0.175c-0.215-0.059-0.379-0.053-0.493 0.018-0.107 0.073-0.191 0.184-0.251 0.335-0.061 0.151-0.122 0.326-0.184 0.525v0l-0.459 1.488 1.504 0.475 0.175-0.771 0.377 0.116-0.564 1.826-0.281-0.086c0.08-0.258 0.101-0.452 0.064-0.584-0.037-0.131-0.126-0.233-0.266-0.304-0.149-0.067-0.344-0.131-0.586-0.192v0l-0.528-0.142-0.561 1.817c-0.05 0.161-0.092 0.296-0.125 0.405-0.042 0.114-0.081 0.204-0.116 0.272v0c0.105 0.025 0.206 0.053 0.303 0.082 0.099 0.023 0.197 0.047 0.296 0.071 0.097 0.03 0.196 0.061 0.299 0.092v0z" fill="#ff26a0" data-fill-palette-color="accent"></path><path d="M40.735 93.734v0c-0.567-0.084-1.04-0.249-1.419-0.496-0.378-0.254-0.67-0.559-0.876-0.917-0.206-0.358-0.341-0.739-0.404-1.143-0.063-0.405-0.065-0.804-0.006-1.197v0c0.055-0.373 0.175-0.744 0.358-1.112 0.184-0.368 0.43-0.693 0.737-0.975 0.307-0.282 0.669-0.494 1.086-0.636 0.422-0.135 0.897-0.164 1.424-0.086v0c0.547 0.081 1.006 0.248 1.377 0.5 0.371 0.259 0.662 0.572 0.874 0.937 0.213 0.359 0.357 0.741 0.433 1.147 0.07 0.399 0.078 0.785 0.023 1.159v0c-0.055 0.373-0.175 0.744-0.359 1.112-0.184 0.368-0.43 0.693-0.737 0.975-0.308 0.288-0.671 0.504-1.087 0.646-0.415 0.136-0.89 0.165-1.424 0.086zM40.809 93.377v0c0.367 0.054 0.702 0.022 1.005-0.096 0.297-0.12 0.555-0.299 0.775-0.54 0.22-0.24 0.4-0.513 0.541-0.82 0.142-0.313 0.237-0.636 0.286-0.969v0c0.054-0.367 0.059-0.741 0.013-1.123-0.047-0.375-0.148-0.727-0.304-1.057-0.149-0.329-0.357-0.605-0.623-0.828-0.259-0.229-0.575-0.371-0.949-0.427v0c-0.367-0.054-0.703-0.019-1.008 0.107-0.304 0.119-0.565 0.298-0.785 0.538-0.22 0.24-0.4 0.513-0.54 0.82-0.142 0.313-0.237 0.636-0.286 0.969v0c-0.049 0.333-0.053 0.684-0.013 1.051 0.04 0.374 0.13 0.731 0.271 1.073 0.148 0.335 0.354 0.621 0.619 0.858 0.265 0.237 0.597 0.385 0.998 0.444z" fill="#ff26a0" data-fill-palette-color="accent"></path><path d="M50.75 89.561l-0.343 0.007c-0.014-0.357-0.057-0.653-0.129-0.887-0.072-0.235-0.193-0.407-0.365-0.519-0.164-0.118-0.405-0.171-0.721-0.158v0l-0.768 0.015 0.087 4.934c0.003 0.169 0.006 0.31 0.009 0.425-0.004 0.121-0.013 0.219-0.025 0.294v0c0.128-0.009 0.256-0.019 0.384-0.028 0.121-0.009 0.246-0.015 0.374-0.017v0l0.007 0.394-2.133 0.042-0.006-0.303c0.229-0.011 0.383-0.068 0.462-0.171 0.086-0.096 0.13-0.228 0.134-0.397 0.004-0.162 0.003-0.347-0.001-0.557v0l-0.081-4.59-0.93 0.029c-0.384 0.008-0.651 0.141-0.801 0.4-0.15 0.252-0.22 0.648-0.209 1.187v0l-0.334 0.007 0.013-1.912 5.278-0.104z" fill="#ff26a0" data-fill-palette-color="accent"></path><path d="M55.711 93.342v0c-0.564 0.102-1.065 0.097-1.504-0.015-0.44-0.119-0.814-0.315-1.124-0.587-0.31-0.273-0.559-0.59-0.749-0.954-0.189-0.363-0.319-0.74-0.39-1.131v0c-0.067-0.371-0.073-0.761-0.017-1.169 0.056-0.408 0.185-0.794 0.385-1.159 0.201-0.365 0.476-0.682 0.825-0.952 0.356-0.263 0.797-0.443 1.32-0.538v0c0.544-0.099 1.032-0.088 1.466 0.032 0.434 0.127 0.81 0.329 1.127 0.607 0.317 0.271 0.576 0.587 0.779 0.948 0.195 0.355 0.326 0.719 0.393 1.09v0c0.067 0.371 0.073 0.761 0.017 1.169-0.056 0.408-0.185 0.794-0.385 1.159-0.2 0.372-0.474 0.692-0.823 0.962-0.35 0.262-0.79 0.442-1.32 0.538zM55.665 92.98v0c0.365-0.066 0.672-0.204 0.922-0.414 0.243-0.209 0.43-0.462 0.561-0.76 0.131-0.298 0.214-0.614 0.249-0.95 0.034-0.342 0.021-0.679-0.04-1.01v0c-0.066-0.365-0.182-0.721-0.348-1.067-0.165-0.34-0.373-0.641-0.626-0.904-0.247-0.264-0.532-0.458-0.857-0.584-0.319-0.134-0.664-0.167-1.035-0.1v0c-0.365 0.066-0.671 0.208-0.92 0.424-0.25 0.21-0.44 0.464-0.571 0.761-0.131 0.298-0.214 0.614-0.249 0.95-0.034 0.342-0.021 0.679 0.04 1.01v0c0.06 0.332 0.169 0.665 0.325 1 0.158 0.341 0.358 0.651 0.6 0.929 0.248 0.27 0.535 0.475 0.862 0.614 0.327 0.139 0.689 0.173 1.087 0.101z" fill="#ff26a0" data-fill-palette-color="accent"></path><path d="M65.601 90.271v0c-0.245 0.112-0.494 0.192-0.746 0.24-0.258 0.051-0.51 0.051-0.756-0.001-0.243-0.045-0.465-0.144-0.668-0.295-0.205-0.158-0.374-0.382-0.505-0.67v0c-0.162-0.356-0.189-0.725-0.082-1.108 0.107-0.382 0.321-0.75 0.642-1.103v0c-0.225-0.12-0.424-0.24-0.598-0.361-0.165-0.118-0.306-0.249-0.425-0.396-0.116-0.14-0.213-0.296-0.29-0.467v0c-0.173-0.395-0.171-0.774 0.005-1.136 0.182-0.364 0.494-0.647 0.935-0.848v0c0.276-0.126 0.541-0.187 0.795-0.184 0.25 0.012 0.472 0.077 0.667 0.196 0.189 0.121 0.333 0.293 0.434 0.513v0c0.092 0.202 0.139 0.418 0.139 0.648-0.008 0.226-0.071 0.47-0.189 0.731-0.115 0.267-0.301 0.559-0.557 0.876v0c0.217 0.086 0.461 0.183 0.731 0.289 0.262 0.103 0.522 0.203 0.781 0.3 0.268 0.1 0.508 0.187 0.72 0.261v0c-0.02-0.109-0.042-0.214-0.066-0.315-0.03-0.098-0.061-0.183-0.095-0.257v0c-0.056-0.123-0.13-0.237-0.223-0.343-0.093-0.106-0.205-0.181-0.335-0.224-0.125-0.047-0.272-0.035-0.441 0.033v0l-0.125-0.276 1.445-0.658 0.155 0.341-0.707 0.277c0.126 0.032 0.233 0.097 0.323 0.198 0.09 0.1 0.173 0.225 0.249 0.375v0c0.054 0.102 0.105 0.238 0.152 0.408 0.051 0.177 0.082 0.366 0.093 0.57v0c0.086 0.027 0.179 0.059 0.277 0.096 0.095 0.031 0.198 0.061 0.309 0.092v0c0.346 0.109 0.632 0.175 0.857 0.199 0.225 0.023 0.384 0.014 0.476-0.028v0l0.126 0.276-0.773 0.352c-0.049 0.022-0.183 0.021-0.403-0.006-0.216-0.02-0.526-0.09-0.929-0.21v0c-0.071 0.299-0.215 0.594-0.43 0.885-0.216 0.291-0.538 0.534-0.968 0.73zM65.518 89.82v0c0.346-0.15 0.605-0.339 0.776-0.565 0.171-0.226 0.285-0.463 0.343-0.711v0c-0.063-0.023-0.121-0.045-0.174-0.066-0.051-0.014-0.107-0.033-0.17-0.056v0c-0.533-0.194-1.003-0.365-1.412-0.512-0.417-0.151-0.775-0.295-1.075-0.433v0c-0.124 0.183-0.204 0.374-0.238 0.575-0.028 0.198-0.026 0.382 0.007 0.552 0.03 0.179 0.07 0.324 0.12 0.435v0c0.14 0.307 0.311 0.529 0.515 0.665 0.203 0.137 0.419 0.213 0.648 0.228 0.226 0.008 0.446-0.029 0.66-0.112zM64.139 86.792v0c0.215-0.342 0.338-0.673 0.371-0.991 0.033-0.319-0.005-0.598-0.115-0.837v0c-0.12-0.264-0.287-0.451-0.5-0.561-0.222-0.114-0.459-0.113-0.71 0.001v0c-0.227 0.103-0.375 0.275-0.444 0.514-0.078 0.236-0.047 0.507 0.092 0.813v0c0.109 0.239 0.28 0.443 0.512 0.611 0.235 0.174 0.5 0.324 0.794 0.45z" fill="#ff26a0" data-fill-palette-color="accent"></path><path d="M75.285 84.426l-0.208 0.16-4.575-2.558c-0.292-0.157-0.518-0.294-0.676-0.411-0.162-0.122-0.288-0.229-0.377-0.322v0c-0.069 0.054-0.139 0.107-0.208 0.161-0.064 0.05-0.129 0.104-0.194 0.163v0l-0.241-0.312 1.663-1.287 0.178 0.246c-0.222 0.198-0.306 0.382-0.251 0.552 0.051 0.165 0.217 0.33 0.5 0.496v0c0.331 0.196 0.65 0.383 0.959 0.562 0.308 0.188 0.646 0.383 1.014 0.584v0c0.318 0.18 0.626 0.351 0.922 0.514 0.296 0.163 0.538 0.304 0.724 0.423v0l0.016-0.012c-0.079-0.212-0.149-0.413-0.211-0.604-0.066-0.196-0.14-0.429-0.221-0.698v0c-0.17-0.517-0.314-0.951-0.432-1.302-0.114-0.346-0.211-0.647-0.289-0.902-0.083-0.251-0.155-0.464-0.214-0.64v0c-0.052-0.156-0.093-0.291-0.121-0.405-0.034-0.11-0.06-0.205-0.08-0.284v0c-0.087 0.075-0.173 0.151-0.259 0.227-0.091 0.07-0.182 0.145-0.274 0.224v0l-0.241-0.312 1.455-1.126 0.186 0.24c-0.204 0.166-0.323 0.343-0.356 0.531-0.034 0.188 0.003 0.445 0.111 0.771v0c0.01 0.035 0.021 0.077 0.034 0.127 0.017 0.055 0.045 0.14 0.083 0.256 0.038 0.115 0.093 0.286 0.165 0.511 0.073 0.216 0.17 0.517 0.289 0.902 0.124 0.381 0.277 0.86 0.459 1.435 0.181 0.576 0.405 1.272 0.67 2.09z" fill="#ff26a0" data-fill-palette-color="accent"></path><path d="M75.557 75.726l0.21 0.219c-0.161 0.154-0.238 0.298-0.231 0.431 0.002 0.129 0.054 0.256 0.156 0.383 0.107 0.122 0.237 0.263 0.392 0.423v0l2.657 2.776c0.117 0.122 0.214 0.224 0.293 0.307 0.079 0.092 0.139 0.17 0.181 0.233v0c0.073-0.079 0.149-0.161 0.227-0.246 0.073-0.079 0.149-0.156 0.227-0.231v0l0.273 0.285-1.476 1.413-0.21-0.219c0.161-0.163 0.24-0.309 0.239-0.439-0.007-0.124-0.064-0.252-0.171-0.382-0.107-0.122-0.235-0.26-0.384-0.416v0l-2.706-2.827c-0.084-0.088-0.161-0.173-0.23-0.256-0.074-0.087-0.139-0.165-0.196-0.233v0c-0.073 0.079-0.147 0.159-0.219 0.238-0.083 0.079-0.161 0.159-0.234 0.238v0l-0.273-0.284z" fill="#ff26a0" data-fill-palette-color="accent"></path><path d="M81.269 78.821l-0.236-0.191c0.139-0.183 0.199-0.338 0.18-0.465-0.023-0.122-0.095-0.241-0.218-0.358-0.122-0.107-0.267-0.228-0.435-0.363v0l-3.047-2.455c-0.094-0.076-0.182-0.151-0.262-0.224-0.085-0.077-0.16-0.146-0.223-0.206v0c-0.062 0.088-0.125 0.176-0.187 0.265-0.072 0.089-0.139 0.178-0.202 0.266v0l-0.307-0.248 1.337-1.675c0.338-0.42 0.699-0.766 1.082-1.037 0.387-0.277 0.785-0.458 1.193-0.546 0.412-0.092 0.83-0.084 1.254 0.024 0.425 0.117 0.847 0.345 1.267 0.683v0c0.325 0.262 0.593 0.569 0.804 0.921 0.201 0.352 0.323 0.732 0.367 1.14 0.049 0.412 0.004 0.839-0.135 1.28-0.134 0.446-0.379 0.889-0.734 1.33v0zM78.323 74.628l3 2.418c0.126 0.102 0.236 0.19 0.33 0.266 0.085 0.077 0.152 0.144 0.202 0.201v0c0.111-0.127 0.211-0.241 0.301-0.341 0.085-0.105 0.157-0.194 0.216-0.268 0.059-0.073 0.095-0.118 0.108-0.134v0c0.245-0.304 0.41-0.627 0.493-0.966 0.089-0.336 0.105-0.673 0.049-1.012-0.056-0.339-0.182-0.666-0.379-0.981-0.192-0.31-0.445-0.592-0.76-0.846v0c-0.446-0.36-0.9-0.591-1.362-0.695-0.452-0.105-0.903-0.061-1.352 0.131-0.454 0.188-0.889 0.539-1.303 1.054v0c-0.14 0.173-0.2 0.324-0.182 0.451 0.013 0.123 0.079 0.241 0.196 0.353 0.122 0.107 0.269 0.23 0.443 0.369z" fill="#ff26a0" data-fill-palette-color="accent"></path><path d="M85.614 68.509l-0.152 0.263c-0.228-0.131-0.41-0.193-0.546-0.186-0.136 0.007-0.255 0.071-0.356 0.192-0.101 0.121-0.211 0.299-0.33 0.533v0l-0.302 0.585 1.796 1.035c0.14 0.081 0.26 0.15 0.36 0.206 0.096 0.063 0.176 0.121 0.239 0.173v0l0.836-1.513c0.129-0.237 0.205-0.458 0.23-0.662 0.027-0.21-0.019-0.412-0.141-0.606-0.127-0.198-0.346-0.386-0.655-0.564v0l0.156-0.272 1.503 0.936-2.332 4.048-0.263-0.151c0.109-0.202 0.144-0.364 0.106-0.488-0.041-0.117-0.132-0.224-0.271-0.319-0.137-0.087-0.299-0.184-0.486-0.292v0l-3.391-1.953c-0.105-0.061-0.203-0.121-0.293-0.18-0.096-0.063-0.18-0.119-0.252-0.169v0c-0.048 0.097-0.096 0.194-0.144 0.29-0.057 0.099-0.11 0.197-0.158 0.294v0l-0.342-0.197 2.176-3.776 1.401 0.748-0.152 0.263c-0.31-0.178-0.57-0.266-0.782-0.263-0.217-0.001-0.4 0.066-0.546 0.198-0.149 0.124-0.278 0.287-0.387 0.49v0l-0.371 0.684c-0.105 0.196-0.146 0.355-0.123 0.478 0.014 0.125 0.083 0.234 0.207 0.329 0.124 0.095 0.294 0.205 0.511 0.329v0l1.253 0.722 0.856-1.467-0.705-0.336 0.202-0.351z" fill="#ff26a0" data-fill-palette-color="accent"></path><path d="M90.304 63.864v0c-0.201 0.537-0.463 0.964-0.784 1.283-0.328 0.316-0.688 0.538-1.08 0.664-0.393 0.126-0.794 0.177-1.203 0.153-0.409-0.024-0.799-0.105-1.172-0.245v0c-0.353-0.133-0.691-0.328-1.011-0.585-0.321-0.257-0.587-0.566-0.798-0.925-0.211-0.36-0.342-0.758-0.394-1.196-0.043-0.441 0.029-0.911 0.216-1.409v0c0.194-0.518 0.454-0.931 0.779-1.242 0.331-0.308 0.698-0.527 1.099-0.657 0.395-0.132 0.8-0.193 1.213-0.182 0.405 0.015 0.784 0.089 1.138 0.222v0c0.353 0.133 0.691 0.328 1.012 0.585 0.321 0.257 0.587 0.566 0.797 0.925 0.217 0.362 0.351 0.762 0.404 1.199 0.046 0.435-0.026 0.905-0.216 1.41zM89.97 63.717v0c0.13-0.347 0.169-0.682 0.118-1.003-0.054-0.316-0.176-0.606-0.365-0.872-0.189-0.265-0.418-0.499-0.687-0.7-0.276-0.204-0.572-0.366-0.888-0.485v0c-0.347-0.13-0.712-0.213-1.095-0.248-0.376-0.033-0.742-0.008-1.097 0.074-0.353 0.076-0.666 0.222-0.941 0.436-0.279 0.205-0.484 0.484-0.617 0.837v0c-0.13 0.347-0.166 0.683-0.107 1.008 0.052 0.322 0.172 0.615 0.36 0.88 0.189 0.265 0.418 0.499 0.688 0.701 0.276 0.204 0.572 0.366 0.888 0.484v0c0.316 0.118 0.657 0.196 1.024 0.234 0.374 0.04 0.742 0.027 1.106-0.039 0.359-0.074 0.682-0.216 0.969-0.425 0.287-0.209 0.502-0.503 0.644-0.882z" fill="#ff26a0" data-fill-palette-color="accent"></path><path d="M0.798 47.953c0-1.369 1.109-2.478 2.478-2.478 1.369 0 2.478 1.109 2.478 2.478 0 1.369-1.109 2.478-2.478 2.478-1.369 0-2.478-1.109-2.478-2.478z" fill="#ff26a0" data-fill-palette-color="accent"></path><path d="M88.309 47.953c0-1.369 1.109-2.478 2.478-2.478 1.369 0 2.478 1.109 2.478 2.478 0 1.369-1.109 2.478-2.478 2.478-1.369 0-2.478-1.109-2.478-2.478z" fill="#ff26a0" data-fill-palette-color="accent"></path></g><g id="text-1"></g></svg></g></svg></g><g></g></svg></g><defs></defs></svg><rect width="395.52" height="135.40575628965516" fill="none" stroke="none" visibility="hidden"></rect></g></svg></g></svg>