<svg xmlns="http://www.w3.org/2000/svg" version="1.1" xmlns:xlink="http://www.w3.org/1999/xlink" xmlns:svgjs="http://svgjs.dev/svgjs" width="1500" height="655" viewBox="0 0 1500 655"><g transform="matrix(1,0,0,1,-0.9090909090909918,0.19215817177331473)"><svg viewBox="0 0 396 173" data-background-color="#bfbad2" preserveAspectRatio="xMidYMid meet" height="655" width="1500" xmlns="http://www.w3.org/2000/svg" xmlns:xlink="http://www.w3.org/1999/xlink"><g id="tight-bounds" transform="matrix(1,0,0,1,0.2400000000000091,-0.05075322704851715)"><svg viewBox="0 0 395.52 173.10150645409703" height="173.10150645409703" width="395.52"><g><svg viewBox="0 0 395.52 173.10150645409703" height="173.10150645409703" width="395.52"><g transform="matrix(1,0,0,1,0,147.50965283436753)"><svg viewBox="0 0 395.52 25.591853619729516" height="25.591853619729516" width="395.52"><g id="textblocktransform"><svg viewBox="0 0 395.52 25.591853619729516" height="25.591853619729516" width="395.52" id="textblock"><g><svg viewBox="0 0 395.52 25.591853619729516" height="25.591853619729516" width="395.52"><g transform="matrix(1,0,0,1,0,0)"><svg width="395.52" viewBox="1.75 -35.8 565.61 36.599999999999994" height="25.591853619729516" data-palette-color="#000000"><path d="M31.55-23.8L28.3-23.8Q27.65-27.95 25.53-30.05 23.4-32.15 19.9-32.2L19.9-32.2Q17.3-32.2 15.35-31 13.4-29.8 12.13-27.8 10.85-25.8 10.23-23.25 9.6-20.7 9.6-18L9.6-18Q9.6-13.7 10.83-10.38 12.05-7.05 14.4-5.15 16.75-3.25 20.1-3.25L20.1-3.25Q23.25-3.25 26.35-4.88 29.45-6.5 31.55-9.4L31.55-9.4 33.95-7.2Q31.5-3.85 28.8-2.13 26.1-0.4 23.53 0.2 20.95 0.8 18.9 0.8L18.9 0.8Q15.05 0.8 11.9-0.58 8.75-1.95 6.48-4.38 4.2-6.8 2.98-10.03 1.75-13.25 1.75-17L1.75-17Q1.75-20.4 2.85-23.75 3.95-27.1 6.13-29.83 8.3-32.55 11.6-34.18 14.9-35.8 19.25-35.8L19.25-35.8Q21.2-35.8 23.53-35.18 25.85-34.55 27.9-33.35L27.9-33.35 27.7-35.45 31.55-35.45 31.55-23.8ZM51.25-35L51.25-31.7Q50.15-31.65 49.35-31.4 48.55-31.15 48.12-30.28 47.7-29.4 47.7-27.35L47.7-27.35 47.7-8.2Q47.7-6.85 47.65-5.6 47.6-4.35 47.5-3.7L47.5-3.7Q48.3-3.8 49.52-3.83 50.75-3.85 51.25-3.85L51.25-3.85 51.25 0 36.9 0 36.9-3.3Q38.05-3.35 38.82-3.6 39.6-3.85 40.02-4.75 40.45-5.65 40.45-7.65L40.45-7.65 40.45-26.8Q40.45-28.15 40.52-29.4 40.6-30.65 40.65-31.3L40.65-31.3Q39.85-31.25 38.65-31.23 37.45-31.2 36.9-31.15L36.9-31.15 36.9-35 51.25-35ZM69.4-35L69.4-31.7Q68.3-31.65 67.5-31.4 66.7-31.15 66.27-30.28 65.84-29.4 65.84-27.35L65.84-27.35 65.84-13.6Q65.84-10.45 66.52-8.43 67.2-6.4 68.32-5.23 69.45-4.05 70.87-3.55 72.3-3.05 73.8-3L73.8-3Q76.55-2.9 78.5-4.05 80.45-5.2 81.5-7.6 82.55-10 82.55-13.7L82.55-13.7 82.55-26.8Q82.55-28.15 82.59-29.4 82.65-30.65 82.75-31.3L82.75-31.3Q81.95-31.25 80.72-31.23 79.5-31.2 78.95-31.15L78.95-31.15 78.95-35 90.55-35 90.55-31.7Q89.45-31.65 88.65-31.4 87.84-31.15 87.42-30.28 87-29.4 87-27.35L87-27.35 87-14.85Q87-10.55 85.95-7.55 84.9-4.55 83-2.7 81.09-0.85 78.55-0.03 76 0.8 73 0.8L73 0.8Q68.8 0.8 66-0.4 63.2-1.6 61.57-3.75 59.95-5.9 59.27-8.7 58.6-11.5 58.6-14.7L58.6-14.7 58.6-26.8Q58.6-28.15 58.67-29.4 58.75-30.65 58.8-31.3L58.8-31.3Q58-31.25 56.8-31.23 55.6-31.2 55.05-31.15L55.05-31.15 55.05-35 69.4-35ZM111.24 0L94.24 0 94.24-3.3Q95.39-3.35 96.17-3.6 96.94-3.85 97.37-4.75 97.79-5.65 97.79-7.65L97.79-7.65 97.79-26.8Q97.79-28.15 97.87-29.4 97.94-30.65 97.99-31.3L97.99-31.3Q97.19-31.25 95.99-31.23 94.79-31.2 94.24-31.15L94.24-31.15 94.24-35Q97.69-35.05 101.17-35.05 104.64-35.05 108.09-35.1L108.09-35.1Q114.09-35.15 117.62-32.88 121.14-30.6 120.89-26L120.89-26Q120.79-24.55 119.99-23.18 119.19-21.8 117.62-20.7 116.04-19.6 113.69-18.95L113.69-18.95 113.69-18.9Q118.69-18.1 121.04-15.58 123.39-13.05 123.39-9.95L123.39-9.95Q123.39-6.7 121.82-4.48 120.24-2.25 117.49-1.13 114.74 0 111.24 0L111.24 0ZM104.84-3.55L104.84-3.55Q105.74-3.55 106.54-3.55 107.34-3.55 108.14-3.58 108.94-3.6 109.69-3.6L109.69-3.6Q112.74-3.75 114.14-5.55 115.54-7.35 115.54-10.1L115.54-10.1Q115.54-12.4 114.59-13.73 113.64-15.05 112.17-15.6 110.69-16.15 109.09-16.15L109.09-16.15Q107.84-16.15 106.94-16.15 106.04-16.15 105.04-16.1L105.04-16.1 105.04-7.95Q105.04-6.6 104.99-5.4 104.94-4.2 104.84-3.55ZM105.04-27.4L105.04-19.65 107.64-19.7Q109.74-19.75 110.97-20.65 112.19-21.55 112.72-23.08 113.24-24.6 113.24-26.4L113.24-26.4Q113.24-28.4 112.44-29.53 111.64-30.65 110.44-31.15 109.24-31.65 107.94-31.6L107.94-31.6Q107.14-31.6 106.49-31.35 105.84-31.1 105.44-30.23 105.04-29.35 105.04-27.4L105.04-27.4ZM140.14-35L140.14-31.7Q139.04-31.65 138.24-31.4 137.44-31.15 137.02-30.28 136.59-29.4 136.59-27.35L136.59-27.35 136.59-13.6Q136.59-10.45 137.27-8.43 137.94-6.4 139.07-5.23 140.19-4.05 141.62-3.55 143.04-3.05 144.54-3L144.54-3Q147.29-2.9 149.24-4.05 151.19-5.2 152.24-7.6 153.29-10 153.29-13.7L153.29-13.7 153.29-26.8Q153.29-28.15 153.34-29.4 153.39-30.65 153.49-31.3L153.49-31.3Q152.69-31.25 151.47-31.23 150.24-31.2 149.69-31.15L149.69-31.15 149.69-35 161.29-35 161.29-31.7Q160.19-31.65 159.39-31.4 158.59-31.15 158.17-30.28 157.74-29.4 157.74-27.35L157.74-27.35 157.74-14.85Q157.74-10.55 156.69-7.55 155.64-4.55 153.74-2.7 151.84-0.85 149.29-0.03 146.74 0.8 143.74 0.8L143.74 0.8Q139.54 0.8 136.74-0.4 133.94-1.6 132.32-3.75 130.69-5.9 130.02-8.7 129.34-11.5 129.34-14.7L129.34-14.7 129.34-26.8Q129.34-28.15 129.42-29.4 129.49-30.65 129.54-31.3L129.54-31.3Q128.74-31.25 127.54-31.23 126.34-31.2 125.79-31.15L125.79-31.15 125.79-35 140.14-35ZM193.74-23.8L190.49-23.8Q189.84-27.95 187.71-30.05 185.59-32.15 182.09-32.2L182.09-32.2Q179.49-32.2 177.54-31 175.59-29.8 174.31-27.8 173.04-25.8 172.41-23.25 171.79-20.7 171.79-18L171.79-18Q171.79-13.7 173.01-10.38 174.24-7.05 176.59-5.15 178.94-3.25 182.29-3.25L182.29-3.25Q185.44-3.25 188.54-4.88 191.64-6.5 193.74-9.4L193.74-9.4 196.14-7.2Q193.69-3.85 190.99-2.13 188.29-0.4 185.71 0.2 183.14 0.8 181.09 0.8L181.09 0.8Q177.24 0.8 174.09-0.58 170.94-1.95 168.66-4.38 166.39-6.8 165.16-10.03 163.94-13.25 163.94-17L163.94-17Q163.94-20.4 165.04-23.75 166.14-27.1 168.31-29.83 170.49-32.55 173.79-34.18 177.09-35.8 181.44-35.8L181.44-35.8Q183.39-35.8 185.71-35.18 188.04-34.55 190.09-33.35L190.09-33.35 189.89-35.45 193.74-35.45 193.74-23.8ZM227.28 0L212.23 0 212.23-3.3Q213.38-3.35 214.16-3.6 214.93-3.85 215.36-4.75 215.78-5.65 215.78-7.65L215.78-7.65 215.78-26.8Q215.78-28.15 215.86-29.4 215.93-30.65 215.98-31.3L215.98-31.3Q215.18-31.25 213.98-31.23 212.78-31.2 212.23-31.15L212.23-31.15 212.23-35 237.23-35 237.53-25.3 234.23-25.3Q234.23-28.05 233.28-29.45 232.33-30.85 230.93-31.33 229.53-31.8 228.18-31.75L228.18-31.75 226.38-31.7Q225.33-31.7 224.58-31.43 223.83-31.15 223.43-30.23 223.03-29.3 223.03-27.35L223.03-27.35 223.03-18.65 228.18-18.65 227.98-22.95 231.83-22.95 231.83-10.8 228.53-10.8Q228.53-12.9 227.88-13.85 227.23-14.8 226.11-15.03 224.98-15.25 223.63-15.2L223.63-15.2 223.03-15.2 223.03-8.2Q223.03-6.85 222.98-5.6 222.93-4.35 222.83-3.7L222.83-3.7Q223.38-3.75 224.28-3.78 225.18-3.8 226.06-3.83 226.93-3.85 227.28-3.85L227.28-3.85 227.28 0ZM257.43 0.8L257.43 0.8Q252.68 0.8 249.36-0.8 246.03-2.4 243.98-5.08 241.93-7.75 240.98-11 240.03-14.25 240.03-17.5L240.03-17.5Q240.03-20.65 241.11-23.88 242.18-27.1 244.36-29.8 246.53-32.5 249.83-34.15 253.13-35.8 257.58-35.8L257.58-35.8Q262.13-35.8 265.43-34.15 268.73-32.5 270.83-29.78 272.93-27.05 273.96-23.85 274.98-20.65 274.98-17.5L274.98-17.5Q274.98-14.4 273.91-11.2 272.83-8 270.66-5.28 268.48-2.55 265.18-0.88 261.88 0.8 257.43 0.8ZM257.98-2.85L257.98-2.85Q260.58-2.85 262.33-4.13 264.08-5.4 265.13-7.45 266.18-9.5 266.63-11.93 267.08-14.35 267.08-16.65L267.08-16.65Q267.08-20.1 266.48-22.95 265.88-25.8 264.63-27.88 263.38-29.95 261.46-31.08 259.53-32.2 256.93-32.15L256.93-32.15Q254.38-32.1 252.63-30.78 250.88-29.45 249.83-27.38 248.78-25.3 248.33-22.85 247.88-20.4 247.88-18.1L247.88-18.1Q247.88-15.75 248.41-13.1 248.93-10.45 250.08-8.1 251.23-5.75 253.18-4.3 255.13-2.85 257.98-2.85ZM308.38-23.7L305.08-23.7Q305.08-26.4 304.33-28.18 303.58-29.95 302.2-30.83 300.83-31.7 298.93-31.65L298.93-31.65 296.53-31.65 296.53-8.2Q296.53-6.85 296.48-5.6 296.43-4.35 296.33-3.7L296.33-3.7Q297.18-3.8 298.5-3.83 299.83-3.85 300.33-3.85L300.33-3.85 300.33 0 285.73 0 285.73-3.3Q286.88-3.35 287.65-3.6 288.43-3.85 288.85-4.75 289.28-5.65 289.28-7.65L289.28-7.65 289.28-31.6 286.98-31.6Q284.13-31.55 282.48-29.65 280.83-27.75 280.83-23.7L280.83-23.7 277.53-23.7 277.78-35 308.08-35 308.38-23.7ZM328.38 0.8L328.38 0.8Q323.63 0.8 320.3-0.8 316.98-2.4 314.93-5.08 312.88-7.75 311.93-11 310.98-14.25 310.98-17.5L310.98-17.5Q310.98-20.65 312.05-23.88 313.13-27.1 315.3-29.8 317.48-32.5 320.78-34.15 324.08-35.8 328.53-35.8L328.53-35.8Q333.08-35.8 336.38-34.15 339.68-32.5 341.78-29.78 343.88-27.05 344.9-23.85 345.93-20.65 345.93-17.5L345.93-17.5Q345.93-14.4 344.85-11.2 343.78-8 341.6-5.28 339.43-2.55 336.13-0.88 332.83 0.8 328.38 0.8ZM328.93-2.85L328.93-2.85Q331.53-2.85 333.28-4.13 335.03-5.4 336.08-7.45 337.13-9.5 337.58-11.93 338.03-14.35 338.03-16.65L338.03-16.65Q338.03-20.1 337.43-22.95 336.83-25.8 335.58-27.88 334.33-29.95 332.4-31.08 330.48-32.2 327.88-32.15L327.88-32.15Q325.33-32.1 323.58-30.78 321.83-29.45 320.78-27.38 319.73-25.3 319.28-22.85 318.83-20.4 318.83-18.1L318.83-18.1Q318.83-15.75 319.35-13.1 319.88-10.45 321.03-8.1 322.18-5.75 324.13-4.3 326.08-2.85 328.93-2.85ZM373.87 0.8L373.87 0.8Q371.72 0.8 369.59 0.25 367.47-0.3 365.75-1.43 364.02-2.55 363-4.3 361.97-6.05 361.97-8.5L361.97-8.5Q361.97-11.85 364.19-14.43 366.42-17 369.77-18.25L369.77-18.25Q367.97-20.2 367.09-21.8 366.22-23.4 365.94-24.8 365.67-26.2 365.67-27.55L365.67-27.55Q365.72-31.35 368.32-33.58 370.92-35.8 375.22-35.8L375.22-35.8Q377.87-35.8 379.82-34.7 381.77-33.6 382.84-31.83 383.92-30.05 383.92-27.95L383.92-27.95Q383.92-25.9 382.89-24.08 381.87-22.25 380.22-20.78 378.57-19.3 376.72-18.2L376.72-18.2Q376.92-18 378.12-16.75 379.32-15.5 381.12-13.75 382.92-12 384.82-10.25L384.82-10.25Q384.97-10.85 385.02-11.48 385.07-12.1 385.07-12.75L385.07-12.75Q385.07-14.15 384.77-14.95 384.47-15.75 383.89-16.13 383.32-16.5 382.42-16.55L382.42-16.55 382.42-19.75 390.82-19.75 390.82-16 388.07-16.15Q388.32-15.55 388.47-14.78 388.62-14 388.62-13.1L388.62-13.1Q388.62-11.65 388.37-10.3 388.12-8.95 387.67-7.7L387.67-7.7Q387.87-7.55 388.05-7.38 388.22-7.2 388.42-7.05L388.42-7.05Q390.37-5.4 391.97-4.35 393.57-3.3 394.57-3.3L394.57-3.3 394.57 0 389.22 0Q388.82 0 387.44-0.75 386.07-1.5 384.32-2.85L384.32-2.85Q382.37-1.15 379.72-0.18 377.07 0.8 373.87 0.8ZM375.47-2.75L375.47-2.75Q377.37-2.75 378.94-3.38 380.52-4 381.72-5.1L381.72-5.1Q381.07-5.65 380.47-6.23 379.87-6.8 379.22-7.35L379.22-7.35Q376.32-10 374.55-11.83 372.77-13.65 371.22-15.4L371.22-15.4Q370.27-14.65 369.75-13.6 369.22-12.55 369-11.53 368.77-10.5 368.77-9.75L368.77-9.75Q368.77-7.5 369.57-5.93 370.37-4.35 371.87-3.55 373.37-2.75 375.47-2.75ZM374.47-20.85L374.47-20.85Q376.37-22.3 377.32-24.48 378.27-26.65 378.27-28.2L378.27-28.2Q378.27-30 377.39-31.15 376.52-32.3 374.97-32.3L374.97-32.3Q373.57-32.3 372.59-31.15 371.62-30 371.62-27.8L371.62-27.8Q371.62-26.3 372.44-24.33 373.27-22.35 374.47-20.85ZM427.56 0.3L423.46 0.3 411.96-26.55Q411.46-27.8 411.01-29.15 410.56-30.5 410.56-31.3L410.56-31.3Q409.76-31.25 409.09-31.23 408.41-31.2 407.86-31.15L407.86-31.15 407.86-35 422.61-35 422.61-31.7Q420.76-31.75 419.79-30.9 418.81-30.05 419.71-27.85L419.71-27.85Q420.86-25.05 422.01-22.2 423.16-19.35 424.31-16.55L424.31-16.55Q425.16-14.45 425.76-12.88 426.36-11.3 427.16-9.4L427.16-9.4 427.21-9.4Q427.76-10.9 428.39-12.75 429.01-14.6 429.61-16.3L429.61-16.3Q430.26-18.05 430.89-19.8 431.51-21.55 432.16-23.28 432.81-25 433.41-26.75L433.41-26.75Q433.66-27.6 434.24-29.05 434.81-30.5 435.46-31.3L435.46-31.3Q434.66-31.25 433.41-31.23 432.16-31.2 431.61-31.15L431.61-31.15 431.61-35 442.86-35 442.86-31.7Q441.16-31.65 439.91-30.45 438.66-29.25 437.56-26.35L437.56-26.35Q436.71-24.15 435.89-21.93 435.06-19.7 434.24-17.48 433.41-15.25 432.56-13.03 431.71-10.8 430.89-8.58 430.06-6.35 429.24-4.15 428.41-1.95 427.56 0.3L427.56 0.3ZM459.71-35L459.71-31.7Q458.61-31.65 457.81-31.4 457.01-31.15 456.59-30.28 456.16-29.4 456.16-27.35L456.16-27.35 456.16-8.2Q456.16-6.85 456.11-5.6 456.06-4.35 455.96-3.7L455.96-3.7Q456.76-3.8 457.99-3.83 459.21-3.85 459.71-3.85L459.71-3.85 459.71 0 445.36 0 445.36-3.3Q446.51-3.35 447.29-3.6 448.06-3.85 448.49-4.75 448.91-5.65 448.91-7.65L448.91-7.65 448.91-26.8Q448.91-28.15 448.99-29.4 449.06-30.65 449.11-31.3L449.11-31.3Q448.31-31.25 447.11-31.23 445.91-31.2 445.36-31.15L445.36-31.15 445.36-35 459.71-35ZM464.71 0L464.71-3.3Q465.86-3.35 466.63-3.6 467.41-3.85 467.83-4.75 468.26-5.65 468.26-7.65L468.26-7.65 468.26-26.8Q468.26-28.15 468.33-29.4 468.41-30.65 468.46-31.3L468.46-31.3Q467.66-31.25 466.46-31.23 465.26-31.2 464.71-31.15L464.71-31.15 464.71-35 479.26-35.05Q484.21-35.05 487.83-33.58 491.46-32.1 493.78-29.6 496.11-27.1 497.26-24.03 498.41-20.95 498.41-17.85L498.41-17.85Q498.41-14.8 497.33-11.65 496.26-8.5 493.96-5.88 491.66-3.25 487.96-1.63 484.26 0 479.01 0L479.01 0 464.71 0ZM475.51-27.45L475.51-8.2Q475.51-6.85 475.46-5.6 475.41-4.35 475.31-3.7L475.31-3.7Q475.81-3.75 476.69-3.73 477.56-3.7 478.51-3.68 479.46-3.65 480.06-3.65L480.06-3.65Q482.81-3.65 484.78-4.75 486.76-5.85 488.03-7.73 489.31-9.6 489.91-11.95 490.51-14.3 490.51-16.8L490.51-16.8Q490.51-21.9 489.11-25.15 487.71-28.4 485.19-30 482.66-31.6 479.16-31.7L479.16-31.7Q477.96-31.75 477.13-31.48 476.31-31.2 475.91-30.3 475.51-29.4 475.51-27.45L475.51-27.45ZM522.26-12.05L518.96-12.05Q518.96-14.15 518.31-15.08 517.66-16 516.53-16.25 515.41-16.5 514.06-16.45L514.06-16.45 512.76-16.4 512.76-8.2Q512.76-6.85 512.71-5.65 512.66-4.45 512.56-3.8L512.56-3.8 519.26-3.8Q520.76-3.8 522.16-4.48 523.56-5.15 524.46-6.73 525.36-8.3 525.36-11L525.36-11 528.61-11 528.36 0 501.96 0 501.96-3.3Q503.11-3.35 503.88-3.6 504.66-3.85 505.08-4.75 505.51-5.65 505.51-7.65L505.51-7.65 505.51-26.8Q505.51-28.15 505.58-29.4 505.66-30.65 505.71-31.3L505.71-31.3Q504.91-31.25 503.71-31.23 502.51-31.2 501.96-31.15L501.96-31.15 501.96-35 526.96-35 527.26-25.3 523.96-25.3Q523.96-28.05 523.01-29.45 522.06-30.85 520.66-31.33 519.26-31.8 517.91-31.75L517.91-31.75 516.11-31.7Q515.06-31.7 514.31-31.43 513.56-31.15 513.16-30.23 512.76-29.3 512.76-27.35L512.76-27.35 512.76-19.85 518.61-19.85 518.41-24.2 522.26-24.2 522.26-12.05ZM549.8 0.8L549.8 0.8Q545.05 0.8 541.73-0.8 538.4-2.4 536.36-5.08 534.3-7.75 533.36-11 532.4-14.25 532.4-17.5L532.4-17.5Q532.4-20.65 533.48-23.88 534.55-27.1 536.73-29.8 538.9-32.5 542.2-34.15 545.5-35.8 549.95-35.8L549.95-35.8Q554.5-35.8 557.8-34.15 561.11-32.5 563.2-29.78 565.3-27.05 566.33-23.85 567.36-20.65 567.36-17.5L567.36-17.5Q567.36-14.4 566.28-11.2 565.2-8 563.03-5.28 560.86-2.55 557.55-0.88 554.25 0.8 549.8 0.8ZM550.36-2.85L550.36-2.85Q552.95-2.85 554.7-4.13 556.45-5.4 557.5-7.45 558.55-9.5 559-11.93 559.45-14.35 559.45-16.65L559.45-16.65Q559.45-20.1 558.86-22.95 558.25-25.8 557-27.88 555.75-29.95 553.83-31.08 551.9-32.2 549.3-32.15L549.3-32.15Q546.75-32.1 545-30.78 543.25-29.45 542.2-27.38 541.15-25.3 540.7-22.85 540.25-20.4 540.25-18.1L540.25-18.1Q540.25-15.75 540.78-13.1 541.3-10.45 542.45-8.1 543.61-5.75 545.55-4.3 547.5-2.85 550.36-2.85Z" opacity="1" transform="matrix(1,0,0,1,0,0)" fill="#000000" class="wordmark-text-0" data-fill-palette-color="primary" id="text-0"></path></svg></g></svg></g></svg></g></svg></g><g transform="matrix(1,0,0,1,131.55720162673032,0)"><svg viewBox="0 0 132.40559674653937 132.40559674653937" height="132.40559674653937" width="132.40559674653937"><g><svg viewBox="0 0 132.40559674653937 132.40559674653937" height="132.40559674653937" width="132.40559674653937"><g transform="matrix(1,0,0,1,34.9944999310932,38.87507574302023)"><svg viewBox="0 0 62.41659688435298 54.65544526049891" height="54.65544526049891" width="62.41659688435298"><g><svg xmlns="http://www.w3.org/2000/svg" xmlns:xlink="http://www.w3.org/1999/xlink" version="1.1" x="0" y="0" viewBox="0.0020000000000024443 31.835289218943654 511.99431479009417 448.3307107810563" enable-background="new 0 0 512 512" xml:space="preserve" height="54.65544526049891" width="62.41659688435298" class="icon-cg-0" data-fill-palette-color="accent" id="cg-0"><g fill="#000000" data-fill-palette-color="accent"><path d="M261.254 351.915c7.906 0 14.344-6.438 14.344-14.344s-6.438-14.344-14.344-14.344c-7.907 0-14.344 6.438-14.344 14.344S253.347 351.915 261.254 351.915z" fill="#000000" data-fill-palette-color="accent"></path><path d="M59.332 278.243c0 5.016 4.078 9.109 9.109 9.109h59.312c5.031 0 9.125-4.094 9.125-9.109s-4.094-9.109-9.125-9.109H68.441C63.41 269.134 59.332 273.228 59.332 278.243z" fill="#000000" data-fill-palette-color="accent"></path><path d="M261.254 420.837c45.906 0 83.25-37.344 83.25-83.266 0-45.906-37.344-83.265-83.25-83.265-45.907 0-83.282 37.359-83.282 83.265C177.972 383.493 215.347 420.837 261.254 420.837zM261.254 272.524c35.875 0 65.047 29.172 65.047 65.047s-29.172 65.047-65.047 65.047c-35.875 0-65.063-29.172-65.063-65.047S225.378 272.524 261.254 272.524z" fill="#000000" data-fill-palette-color="accent"></path><path d="M496.676 161.697L143.738 33.229c-12.203-4.484-26.297 2.266-30.672 14.312L70.191 165.306H53.597c-13.188 0-23.938 10.75-23.938 23.953v5.719h-5.719c-13.203 0-23.938 10.75-23.938 23.938v237.312c0 13.188 10.734 23.938 23.938 23.938h365.141c9.984-0.031 19.016-6.344 22.422-15.75l99.062-272.187C515.004 180.041 508.77 166.353 496.676 161.697zM385.629 461.946H18.222v-248.75h29.656v-29.656h70.781v29.656h266.969V461.946zM403.848 432.228V218.916c0-13.188-10.75-23.938-23.938-23.938H136.878v-5.719c0-13.203-10.75-23.953-23.938-23.953H89.566l42.562-116.921 363.297 132.218L403.848 432.228z" fill="#000000" data-fill-palette-color="accent"></path></g></svg></g></svg></g><g id="text-0"><path d="M6.454 43.048l-0.262 0.776c-0.693-0.119-1.263-0.065-1.709 0.162-0.453 0.225-0.776 0.614-0.969 1.168v0c-0.14 0.416-0.167 0.812-0.081 1.191 0.089 0.371 0.258 0.713 0.509 1.025 0.244 0.31 0.555 0.582 0.932 0.815 0.368 0.238 0.77 0.43 1.205 0.577v0c0.684 0.23 1.325 0.336 1.923 0.316 0.589-0.015 1.1-0.16 1.534-0.435 0.425-0.27 0.728-0.673 0.909-1.21v0c0.168-0.499 0.207-1.037 0.116-1.615-0.094-0.587-0.316-1.124-0.664-1.612v0l0.721-0.398c0.399 0.569 0.663 1.117 0.792 1.644 0.131 0.521 0.175 1.002 0.134 1.444-0.042 0.441-0.118 0.825-0.228 1.151v0c-0.207 0.614-0.503 1.137-0.89 1.569-0.392 0.423-0.841 0.753-1.347 0.988-0.504 0.229-1.048 0.355-1.633 0.379-0.576 0.02-1.161-0.071-1.756-0.271v0c-0.543-0.183-1.055-0.451-1.534-0.804-0.473-0.351-0.867-0.776-1.184-1.274-0.319-0.492-0.518-1.043-0.596-1.652-0.086-0.613-0.012-1.264 0.22-1.955v0c0.105-0.313 0.272-0.638 0.498-0.975 0.221-0.339 0.482-0.639 0.784-0.9v0l-0.515-0.12 0.31-0.92z" fill="#000000" data-fill-palette-color="accent"></path><path d="M6.522 36.102l0.749 0.357c-0.069 0.176-0.114 0.334-0.136 0.473-0.022 0.139 0.02 0.271 0.125 0.396 0.102 0.131 0.308 0.27 0.619 0.419v0l4.357 2.078c0.201 0.096 0.397 0.193 0.589 0.292 0.186 0.096 0.323 0.177 0.412 0.241v0c0.04-0.131 0.105-0.29 0.195-0.479 0.081-0.186 0.14-0.318 0.178-0.397v0l0.877 0.418-1.559 3.27-0.749-0.357c0.078-0.179 0.123-0.337 0.136-0.473 0.022-0.139-0.02-0.271-0.125-0.396-0.108-0.134-0.314-0.273-0.619-0.419v0l-4.348-2.073c-0.207-0.099-0.402-0.199-0.585-0.301-0.186-0.096-0.328-0.175-0.425-0.237v0c-0.046 0.128-0.112 0.283-0.2 0.465-0.081 0.186-0.139 0.322-0.173 0.411v0l-0.877-0.418z" fill="#000000" data-fill-palette-color="accent"></path><path d="M9.877 30.707l0.693 0.457c-0.093 0.165-0.159 0.315-0.2 0.45-0.037 0.129-0.014 0.266 0.069 0.41 0.083 0.144 0.268 0.31 0.555 0.5v0l2.889 1.906c0.445 0.294 0.84 0.485 1.184 0.576 0.35 0.094 0.659 0.116 0.926 0.065 0.267-0.05 0.504-0.152 0.712-0.306 0.198-0.152 0.368-0.331 0.511-0.535v0c0.273-0.377 0.418-0.755 0.433-1.134 0.019-0.384-0.09-0.758-0.326-1.123-0.241-0.369-0.621-0.725-1.138-1.067v0l-2.753-1.818c-0.191-0.126-0.371-0.253-0.538-0.379-0.171-0.121-0.3-0.218-0.389-0.293v0c-0.063 0.12-0.15 0.265-0.262 0.434-0.11 0.178-0.186 0.306-0.228 0.382v0l-0.811-0.535 1.611-2.44 0.693 0.457c-0.093 0.165-0.159 0.315-0.2 0.45-0.041 0.135-0.017 0.271 0.069 0.409 0.083 0.144 0.268 0.31 0.555 0.5v0l2.627 1.734c0.602 0.398 1.066 0.809 1.392 1.234 0.326 0.425 0.531 0.855 0.615 1.291 0.081 0.441 0.06 0.876-0.062 1.305-0.12 0.438-0.319 0.869-0.597 1.291v0c-0.387 0.586-0.794 1.02-1.224 1.302-0.429 0.283-0.867 0.438-1.314 0.467-0.456 0.03-0.911-0.04-1.365-0.21-0.452-0.161-0.903-0.39-1.353-0.687v0l-2.542-1.678c-0.191-0.126-0.371-0.253-0.538-0.379-0.167-0.126-0.297-0.224-0.388-0.293v0c-0.063 0.12-0.15 0.265-0.262 0.433-0.106 0.173-0.182 0.3-0.228 0.383v0l-0.811-0.535z" fill="#000000" data-fill-palette-color="accent"></path><path d="M24.018 26.892l-2.899 3.162-0.612-0.56c0.127-0.149 0.217-0.286 0.269-0.413 0.061-0.127 0.06-0.265-0.004-0.415-0.064-0.16-0.221-0.353-0.469-0.582v0l-3.551-3.254c-0.169-0.155-0.326-0.308-0.471-0.46-0.15-0.146-0.262-0.263-0.338-0.35v0c-0.081 0.109-0.19 0.237-0.327 0.386-0.132 0.154-0.227 0.268-0.286 0.342v0l-0.716-0.656c0.387-0.432 0.779-0.865 1.176-1.297 0.392-0.428 0.782-0.858 1.168-1.29v0c0.679-0.75 1.356-1.214 2.031-1.392 0.685-0.178 1.297 0.008 1.836 0.557v0c0.175 0.179 0.301 0.395 0.38 0.65 0.078 0.254 0.093 0.543 0.044 0.865-0.039 0.322-0.15 0.663-0.335 1.024v0l0.008 0.007c0.665-0.525 1.288-0.791 1.87-0.798 0.578-0.001 1.058 0.174 1.441 0.525v0c0.403 0.369 0.655 0.778 0.755 1.228 0.096 0.445 0.056 0.902-0.119 1.373-0.171 0.466-0.454 0.915-0.851 1.347zM22.268 27.483v0c0.105-0.114 0.203-0.221 0.294-0.32 0.091-0.099 0.178-0.199 0.259-0.298 0.086-0.104 0.173-0.203 0.259-0.298v0c0.332-0.392 0.465-0.777 0.401-1.156-0.064-0.379-0.268-0.726-0.611-1.041v0c-0.283-0.26-0.562-0.405-0.836-0.436-0.274-0.031-0.527 0.011-0.76 0.126-0.233 0.125-0.441 0.287-0.624 0.486v0c-0.141 0.154-0.262 0.286-0.362 0.395-0.105 0.114-0.212 0.236-0.321 0.365v0l1.514 1.388c0.169 0.155 0.326 0.303 0.471 0.445 0.14 0.137 0.245 0.252 0.316 0.344zM17.871 23.384l1.44 1.32 0.429-0.498c0.232-0.263 0.364-0.522 0.396-0.777 0.022-0.254-0.031-0.5-0.161-0.738-0.13-0.238-0.306-0.459-0.53-0.664v0c-0.244-0.223-0.478-0.352-0.705-0.385-0.23-0.028-0.446 0.003-0.647 0.093-0.196 0.094-0.367 0.226-0.513 0.394v0c-0.087 0.094-0.154 0.198-0.201 0.31-0.043 0.107-0.033 0.235 0.031 0.385 0.064 0.15 0.218 0.337 0.461 0.56z" fill="#000000" data-fill-palette-color="accent"></path><path d="M24.325 14.772l0.512 0.653c-0.14 0.127-0.251 0.248-0.332 0.363-0.076 0.111-0.097 0.248-0.064 0.41 0.033 0.163 0.156 0.379 0.369 0.65v0l2.137 2.723c0.329 0.419 0.643 0.726 0.941 0.92 0.303 0.2 0.589 0.318 0.858 0.356 0.269 0.037 0.527 0.015 0.772-0.066 0.236-0.082 0.454-0.198 0.654-0.346v0c0.379-0.271 0.635-0.584 0.769-0.938 0.139-0.358 0.155-0.748 0.047-1.169-0.112-0.427-0.359-0.884-0.743-1.372v0l-2.036-2.595c-0.142-0.18-0.272-0.357-0.39-0.53-0.124-0.169-0.216-0.302-0.276-0.401v0c-0.098 0.094-0.226 0.203-0.386 0.328-0.16 0.134-0.273 0.231-0.338 0.291v0l-0.599-0.764 2.3-1.806 0.512 0.653c-0.14 0.127-0.251 0.248-0.332 0.364-0.081 0.115-0.102 0.252-0.064 0.41 0.033 0.163 0.156 0.379 0.369 0.65v0l1.943 2.475c0.446 0.568 0.756 1.105 0.93 1.611 0.174 0.506 0.233 0.979 0.175 1.42-0.063 0.444-0.22 0.85-0.471 1.219-0.252 0.378-0.577 0.723-0.976 1.035v0c-0.552 0.433-1.076 0.716-1.572 0.848-0.496 0.132-0.961 0.141-1.394 0.027-0.442-0.116-0.852-0.326-1.229-0.631-0.378-0.295-0.733-0.655-1.066-1.08v0l-1.88-2.396c-0.142-0.18-0.272-0.357-0.391-0.53-0.118-0.173-0.211-0.306-0.276-0.4v0c-0.098 0.094-0.226 0.203-0.385 0.328-0.155 0.13-0.268 0.227-0.338 0.291v0l-0.6-0.764z" fill="#000000" data-fill-palette-color="accent"></path><path d="M38.654 8.974l-0.719 0.394c-0.429-0.557-0.885-0.903-1.367-1.039-0.485-0.141-0.987-0.074-1.504 0.203v0c-0.384 0.211-0.673 0.485-0.866 0.822-0.186 0.333-0.293 0.7-0.32 1.099-0.03 0.394 0.014 0.804 0.134 1.231 0.11 0.424 0.275 0.838 0.496 1.24v0c0.347 0.633 0.748 1.144 1.2 1.534 0.444 0.387 0.918 0.627 1.423 0.72 0.496 0.09 0.992-0.002 1.488-0.275v0c0.461-0.253 0.855-0.623 1.18-1.11 0.328-0.496 0.529-1.041 0.603-1.635v0l0.8 0.196c-0.091 0.689-0.268 1.271-0.53 1.746-0.257 0.472-0.55 0.856-0.88 1.152-0.33 0.296-0.645 0.528-0.947 0.693v0c-0.568 0.312-1.14 0.495-1.718 0.551-0.575 0.046-1.128-0.015-1.66-0.185-0.526-0.173-1.012-0.449-1.458-0.827-0.437-0.376-0.807-0.838-1.109-1.389v0c-0.276-0.503-0.471-1.046-0.583-1.63-0.11-0.578-0.113-1.158-0.009-1.739 0.099-0.577 0.325-1.118 0.681-1.62 0.352-0.509 0.847-0.938 1.485-1.289v0c0.29-0.159 0.632-0.285 1.027-0.379 0.392-0.1 0.787-0.144 1.186-0.132v0l-0.297-0.437 0.851-0.468z" fill="#000000" data-fill-palette-color="accent"></path><path d="M50.725 10.933l-3.637 1.082-0.236-0.795c0.186-0.062 0.333-0.134 0.442-0.216 0.118-0.077 0.188-0.197 0.21-0.358 0.027-0.17-0.008-0.416-0.104-0.74v0l-1.374-4.617c-0.065-0.22-0.122-0.432-0.168-0.636-0.053-0.202-0.09-0.36-0.11-0.474v0c-0.125 0.051-0.285 0.106-0.479 0.164-0.192 0.064-0.332 0.113-0.421 0.146v0l-0.277-0.931 6.042-1.798 0.767 2.327-0.796 0.236c-0.133-0.446-0.307-0.76-0.523-0.942-0.221-0.174-0.456-0.266-0.705-0.276-0.249-0.01-0.48 0.02-0.691 0.09v0l-0.434 0.139c-0.168 0.05-0.307 0.116-0.416 0.198-0.109 0.082-0.174 0.207-0.195 0.375-0.02 0.168 0.017 0.41 0.111 0.727v0l0.624 2.095 1.251-0.372-0.357-1.024 0.921-0.274 0.875 2.939-0.796 0.236c-0.1-0.336-0.225-0.567-0.374-0.69-0.15-0.124-0.32-0.176-0.511-0.155-0.193 0.015-0.398 0.059-0.615 0.131v0l-0.146 0.043 0.505 1.697c0.064 0.213 0.123 0.424 0.178 0.634 0.053 0.202 0.085 0.358 0.097 0.467v0c0.089-0.033 0.203-0.075 0.343-0.123 0.147-0.051 0.291-0.097 0.434-0.14 0.134-0.047 0.23-0.079 0.288-0.096v0z" fill="#000000" data-fill-palette-color="accent"></path><path d="M58.708 9.62v0c-0.789 0.108-1.479 0.067-2.07-0.124-0.591-0.191-1.088-0.484-1.49-0.878-0.402-0.401-0.721-0.861-0.955-1.381-0.228-0.52-0.379-1.051-0.454-1.592v0c-0.072-0.521-0.058-1.065 0.042-1.63 0.107-0.559 0.31-1.088 0.609-1.585 0.299-0.497 0.707-0.925 1.223-1.282 0.51-0.349 1.136-0.575 1.879-0.676v0c0.755-0.104 1.426-0.056 2.011 0.142 0.587 0.205 1.088 0.508 1.503 0.907 0.41 0.407 0.739 0.865 0.986 1.376 0.241 0.512 0.397 1.028 0.469 1.549v0c0.071 0.515 0.053 1.052-0.055 1.612-0.1 0.559-0.303 1.09-0.608 1.595-0.299 0.497-0.704 0.924-1.213 1.28-0.509 0.356-1.135 0.585-1.877 0.687zM58.723 8.688v0c0.428-0.059 0.774-0.215 1.038-0.469 0.266-0.248 0.461-0.557 0.588-0.929 0.127-0.365 0.2-0.753 0.218-1.164 0.018-0.411 0.001-0.81-0.052-1.198v0c-0.079-0.575-0.201-1.093-0.367-1.553-0.165-0.461-0.375-0.847-0.629-1.16-0.255-0.319-0.556-0.55-0.902-0.693-0.347-0.143-0.733-0.182-1.16-0.116v0c-0.427 0.065-0.772 0.229-1.036 0.489-0.257 0.26-0.449 0.576-0.575 0.948-0.126 0.371-0.201 0.766-0.225 1.185-0.018 0.418 0 0.817 0.052 1.198v0c0.054 0.394 0.155 0.806 0.303 1.235 0.147 0.429 0.345 0.824 0.591 1.185 0.248 0.368 0.549 0.65 0.903 0.847 0.361 0.196 0.778 0.261 1.253 0.195z" fill="#000000" data-fill-palette-color="accent"></path><path d="M72.117 3.071l-0.829-0.023c0.013-0.459-0.04-0.838-0.16-1.139-0.113-0.3-0.285-0.528-0.517-0.683-0.225-0.155-0.496-0.23-0.814-0.225v0l-0.607-0.017-0.167 5.907c-0.006 0.223-0.016 0.442-0.029 0.657-0.013 0.209-0.031 0.367-0.054 0.474v0c0.142-0.016 0.325-0.021 0.547-0.015 0.223 0 0.378 0.001 0.466 0.004v0l-0.028 0.971-3.682-0.105 0.024-0.829c0.196-0.001 0.358-0.024 0.488-0.067 0.129-0.037 0.233-0.128 0.311-0.275 0.079-0.153 0.123-0.398 0.132-0.735v0l0.171-6.029-0.586-0.016c-0.479-0.007-0.861 0.148-1.147 0.463-0.285 0.309-0.438 0.804-0.458 1.485v0l-0.829-0.023 0.142-2.851 7.637 0.217z" fill="#000000" data-fill-palette-color="accent"></path><path d="M77.365 10.216v0c-0.782-0.147-1.424-0.405-1.924-0.773-0.5-0.369-0.879-0.803-1.135-1.305-0.255-0.508-0.411-1.045-0.469-1.612-0.052-0.566-0.027-1.117 0.074-1.654v0c0.097-0.517 0.282-1.028 0.556-1.533 0.279-0.497 0.639-0.934 1.08-1.31 0.442-0.377 0.964-0.653 1.566-0.828 0.595-0.17 1.26-0.185 1.996-0.047v0c0.749 0.141 1.37 0.398 1.863 0.772 0.491 0.381 0.871 0.826 1.139 1.336 0.26 0.516 0.426 1.055 0.499 1.618 0.066 0.562 0.051 1.101-0.047 1.618v0c-0.096 0.511-0.283 1.014-0.562 1.511-0.272 0.498-0.633 0.938-1.082 1.32-0.442 0.377-0.96 0.654-1.556 0.83-0.596 0.176-1.262 0.195-1.998 0.057zM77.674 9.337v0c0.424 0.08 0.802 0.041 1.134-0.116 0.33-0.151 0.614-0.382 0.852-0.695 0.236-0.306 0.428-0.651 0.575-1.035 0.148-0.384 0.258-0.768 0.33-1.153v0c0.107-0.57 0.155-1.1 0.144-1.589-0.011-0.489-0.087-0.923-0.229-1.299-0.141-0.383-0.353-0.698-0.637-0.943-0.283-0.245-0.638-0.405-1.063-0.478v0c-0.426-0.073-0.805-0.028-1.138 0.136-0.326 0.165-0.608 0.404-0.845 0.716-0.237 0.312-0.434 0.663-0.589 1.053-0.149 0.391-0.259 0.775-0.33 1.153v0c-0.074 0.391-0.108 0.814-0.104 1.268 0.004 0.454 0.066 0.891 0.186 1.311 0.119 0.427 0.315 0.79 0.588 1.089 0.28 0.3 0.655 0.494 1.126 0.582z" fill="#000000" data-fill-palette-color="accent"></path><path d="M89.405 13.94v0c-0.332-0.15-0.638-0.34-0.919-0.571-0.29-0.227-0.528-0.487-0.714-0.779-0.184-0.298-0.296-0.615-0.336-0.951-0.031-0.34 0.038-0.697 0.207-1.072v0c0.231-0.51 0.604-0.886 1.12-1.127 0.516-0.241 1.077-0.342 1.682-0.305v0c-0.143-0.42-0.227-0.784-0.251-1.091-0.024-0.307-0.006-0.576 0.055-0.808 0.054-0.235 0.127-0.453 0.219-0.656v0c0.27-0.581 0.682-0.95 1.234-1.108 0.555-0.164 1.162-0.097 1.819 0.201v0c0.406 0.183 0.717 0.428 0.934 0.733 0.226 0.302 0.361 0.626 0.405 0.972 0.035 0.349-0.02 0.683-0.164 1.002v0c-0.142 0.313-0.352 0.574-0.631 0.781-0.288 0.21-0.609 0.372-0.964 0.486-0.352 0.107-0.708 0.183-1.069 0.228v0c0.017 0.045 0.074 0.204 0.173 0.477 0.098 0.274 0.225 0.609 0.378 1.005 0.151 0.387 0.313 0.782 0.486 1.185v0c0.06-0.084 0.119-0.172 0.175-0.265 0.048-0.089 0.095-0.186 0.143-0.291v0c0.095-0.209 0.148-0.385 0.161-0.527 0.006-0.145-0.02-0.268-0.078-0.368-0.067-0.097-0.167-0.179-0.3-0.246v0l0.334-0.738 1.927 0.871-0.388 0.858-0.614-0.311c-0.005 0.109-0.021 0.227-0.05 0.355-0.034 0.125-0.084 0.258-0.147 0.4v0c-0.1 0.221-0.214 0.425-0.343 0.611-0.131 0.192-0.274 0.368-0.428 0.528v0c0.02 0.038 0.036 0.076 0.05 0.112 0.011 0.042 0.027 0.079 0.049 0.111v0c0.184 0.394 0.363 0.727 0.537 0.998 0.174 0.271 0.337 0.441 0.491 0.511v0l-0.342 0.756-1.235-0.559c-0.061-0.028-0.17-0.147-0.327-0.359-0.159-0.205-0.326-0.473-0.502-0.804v0c-0.412 0.125-0.855 0.172-1.33 0.142-0.472-0.036-0.954-0.165-1.447-0.387zM90.141 13.295v0c0.289 0.131 0.575 0.201 0.86 0.211 0.29 0.013 0.565-0.022 0.824-0.104v0c-0.066-0.133-0.125-0.264-0.178-0.392-0.053-0.128-0.11-0.257-0.169-0.388v0c-0.259-0.606-0.46-1.111-0.603-1.516-0.145-0.399-0.277-0.788-0.394-1.166v0c-0.2 0.05-0.377 0.137-0.529 0.26-0.152 0.124-0.28 0.258-0.382 0.405-0.106 0.137-0.186 0.264-0.239 0.38v0c-0.156 0.344-0.226 0.664-0.212 0.96 0.012 0.301 0.104 0.565 0.276 0.79 0.178 0.229 0.427 0.415 0.746 0.56zM91.791 9.033v0c0.389-0.091 0.734-0.272 1.034-0.543 0.298-0.265 0.499-0.515 0.605-0.749v0c0.125-0.277 0.16-0.535 0.105-0.774-0.057-0.233-0.206-0.404-0.445-0.512v0c-0.209-0.095-0.429-0.09-0.661 0.012-0.228 0.112-0.419 0.336-0.572 0.674v0c-0.103 0.227-0.158 0.521-0.165 0.881-0.013 0.357 0.019 0.694 0.099 1.011z" fill="#000000" data-fill-palette-color="accent"></path><path d="M102.103 21.377l-0.82-0.626 1.796-7.135c0.063-0.215 0.131-0.439 0.207-0.67 0.08-0.227 0.161-0.395 0.243-0.502v0c-0.115-0.071-0.219-0.142-0.31-0.211-0.09-0.06-0.174-0.116-0.253-0.168v0l0.59-0.772 2.95 2.255-0.503 0.659c-0.242-0.194-0.471-0.284-0.686-0.269-0.219 0.02-0.38 0.219-0.483 0.599v0c-0.131 0.494-0.267 0.989-0.408 1.484-0.135 0.499-0.269 0.996-0.4 1.49v0c-0.1 0.365-0.19 0.682-0.269 0.953-0.083 0.276-0.168 0.581-0.254 0.914v0l0.008 0.006c0.227-0.141 0.476-0.307 0.75-0.497 0.274-0.181 0.537-0.353 0.79-0.517v0c0.266-0.17 0.527-0.34 0.783-0.509 0.266-0.17 0.53-0.338 0.792-0.503 0.262-0.165 0.521-0.332 0.778-0.501v0c0.124-0.084 0.299-0.196 0.525-0.338 0.222-0.136 0.418-0.224 0.585-0.266v0c-0.115-0.071-0.256-0.17-0.422-0.297-0.17-0.122-0.295-0.208-0.374-0.26v0l0.59-0.772 2.259 1.726-0.504 0.66c-0.239-0.165-0.503-0.231-0.791-0.198-0.285 0.028-0.649 0.183-1.093 0.464v0c-0.338 0.209-0.676 0.418-1.014 0.627-0.338 0.209-0.675 0.422-1.012 0.64-0.338 0.209-0.678 0.42-1.019 0.635-0.338 0.209-0.676 0.418-1.014 0.626-0.337 0.218-0.674 0.432-1.011 0.641-0.328 0.208-0.664 0.418-1.006 0.632z" fill="#000000" data-fill-palette-color="accent"></path><path d="M114.853 20.722l-0.578 0.594c-0.145-0.122-0.28-0.216-0.405-0.28-0.125-0.065-0.263-0.068-0.415-0.009-0.157 0.055-0.355 0.205-0.595 0.452v0l-3.365 3.461c-0.155 0.16-0.31 0.314-0.466 0.464-0.151 0.145-0.271 0.249-0.36 0.313v0c0.111 0.08 0.241 0.192 0.391 0.338 0.15 0.136 0.256 0.235 0.319 0.296v0l-0.677 0.697-2.598-2.526 0.579-0.595c0.145 0.132 0.28 0.225 0.404 0.281 0.125 0.065 0.263 0.068 0.416 0.009 0.161-0.06 0.36-0.21 0.594-0.452v0l3.358-3.454c0.16-0.164 0.318-0.317 0.473-0.457 0.151-0.145 0.271-0.254 0.361-0.327v0c-0.106-0.084-0.232-0.197-0.377-0.339-0.15-0.136-0.261-0.235-0.333-0.295v0l0.677-0.697z" fill="#000000" data-fill-palette-color="accent"></path><path d="M109.892 28.433l0.654-0.511c0.126 0.15 0.247 0.261 0.363 0.332 0.115 0.081 0.252 0.103 0.41 0.065 0.168-0.037 0.385-0.16 0.65-0.368v0l3.792-2.97c0.181-0.141 0.357-0.271 0.531-0.39 0.169-0.124 0.302-0.216 0.401-0.276v0c-0.094-0.098-0.203-0.227-0.328-0.385-0.13-0.155-0.227-0.268-0.291-0.338v0l0.765-0.599 2.273 2.885c0.512 0.653 0.856 1.296 1.034 1.928 0.187 0.633 0.232 1.232 0.135 1.797-0.088 0.566-0.276 1.086-0.564 1.56-0.283 0.47-0.629 0.865-1.038 1.186v0c-0.404 0.316-0.871 0.567-1.404 0.752-0.527 0.181-1.084 0.257-1.671 0.229-0.582-0.032-1.176-0.21-1.78-0.534-0.595-0.322-1.165-0.831-1.71-1.527v0zM117.02 26.309l-3.824 2.995c-0.175 0.137-0.35 0.27-0.524 0.397-0.169 0.124-0.302 0.211-0.399 0.262v0c0.059 0.065 0.135 0.156 0.226 0.272 0.082 0.116 0.173 0.237 0.273 0.365 0.095 0.132 0.173 0.237 0.235 0.317v0c0.283 0.361 0.598 0.616 0.945 0.763 0.353 0.144 0.718 0.205 1.095 0.184 0.383-0.026 0.762-0.121 1.138-0.287 0.37-0.162 0.72-0.371 1.049-0.629v0c0.674-0.528 1.154-1.054 1.439-1.577 0.285-0.523 0.402-1.035 0.353-1.536-0.05-0.501-0.247-0.989-0.594-1.463v0c-0.119-0.163-0.239-0.284-0.36-0.361-0.125-0.082-0.266-0.104-0.424-0.066-0.164 0.043-0.373 0.164-0.628 0.364z" fill="#000000" data-fill-palette-color="accent"></path><path d="M120.965 39.332l-0.405-0.724c0.306-0.171 0.499-0.345 0.578-0.521 0.089-0.173 0.104-0.352 0.047-0.537-0.057-0.185-0.143-0.372-0.257-0.563v0l-0.181-0.281-1.801 1.008c-0.194 0.109-0.381 0.21-0.561 0.303-0.18 0.093-0.322 0.157-0.426 0.192v0l0.826 1.474c0.125 0.224 0.291 0.409 0.497 0.557 0.215 0.15 0.476 0.228 0.781 0.235 0.308-0.002 0.659-0.114 1.054-0.335v0l0.4 0.716-2.449 1.301-3.253-5.809 0.724-0.406c0.101 0.167 0.204 0.295 0.308 0.385 0.101 0.098 0.233 0.14 0.395 0.126 0.172-0.011 0.405-0.099 0.699-0.264v0l4.203-2.353c0.2-0.112 0.395-0.213 0.584-0.304 0.186-0.096 0.332-0.167 0.438-0.211v0c-0.078-0.111-0.166-0.255-0.265-0.431-0.105-0.173-0.183-0.299-0.235-0.379v0l0.848-0.474 3.08 5.5-2.102 1.258-0.405-0.724c0.406-0.227 0.674-0.467 0.804-0.717 0.121-0.253 0.159-0.503 0.115-0.748-0.045-0.246-0.124-0.464-0.24-0.655v0l-0.231-0.392c-0.086-0.153-0.18-0.274-0.284-0.363-0.104-0.089-0.24-0.125-0.408-0.108-0.168 0.017-0.397 0.106-0.686 0.268v0l-1.651 0.924 0.722 1.289 0.938-0.583 0.475 0.848z" fill="#000000" data-fill-palette-color="accent"></path><path d="M120.954 47.744v0c-0.273-0.748-0.379-1.431-0.317-2.049 0.062-0.619 0.242-1.166 0.542-1.642 0.307-0.478 0.689-0.887 1.147-1.226 0.46-0.333 0.947-0.593 1.46-0.781v0c0.494-0.18 1.028-0.282 1.602-0.304 0.569-0.014 1.129 0.073 1.678 0.26 0.549 0.187 1.053 0.495 1.512 0.924 0.449 0.425 0.803 0.989 1.059 1.693v0c0.261 0.716 0.357 1.381 0.287 1.996-0.077 0.617-0.266 1.171-0.568 1.661-0.311 0.487-0.689 0.905-1.137 1.255-0.449 0.343-0.921 0.605-1.415 0.786v0c-0.488 0.178-1.017 0.274-1.586 0.288-0.567 0.02-1.13-0.065-1.688-0.257-0.549-0.187-1.052-0.492-1.508-0.915-0.456-0.423-0.812-0.986-1.068-1.689zM121.867 47.562v0c0.148 0.406 0.374 0.711 0.679 0.915 0.298 0.207 0.642 0.333 1.032 0.378 0.383 0.047 0.778 0.036 1.183-0.034 0.406-0.069 0.792-0.171 1.16-0.304v0c0.545-0.199 1.025-0.428 1.441-0.687 0.415-0.259 0.749-0.546 1-0.861 0.258-0.317 0.42-0.66 0.486-1.028 0.066-0.369 0.022-0.755-0.132-1.159v0c-0.154-0.403-0.387-0.706-0.698-0.908-0.309-0.196-0.658-0.317-1.047-0.362-0.39-0.045-0.792-0.034-1.206 0.031-0.412 0.071-0.799 0.173-1.16 0.305v0c-0.374 0.136-0.755 0.322-1.143 0.557-0.388 0.235-0.733 0.511-1.033 0.83-0.307 0.32-0.519 0.674-0.636 1.061-0.115 0.394-0.09 0.816 0.074 1.266z" fill="#000000" data-fill-palette-color="accent"></path><path d="M11.857 90.119l-0.262-0.777c0.624-0.324 1.045-0.711 1.264-1.162 0.225-0.453 0.247-0.959 0.066-1.517v0c-0.14-0.416-0.358-0.748-0.655-0.997-0.295-0.242-0.637-0.412-1.026-0.509-0.382-0.099-0.794-0.128-1.235-0.086-0.437 0.033-0.873 0.123-1.308 0.27v0c-0.684 0.23-1.258 0.534-1.723 0.91-0.46 0.368-0.78 0.793-0.959 1.273-0.176 0.472-0.173 0.976 0.007 1.514v0c0.168 0.499 0.462 0.951 0.884 1.357 0.43 0.41 0.931 0.705 1.504 0.882v0l-0.334 0.753c-0.662-0.211-1.204-0.488-1.625-0.83-0.419-0.336-0.745-0.692-0.979-1.069-0.234-0.377-0.405-0.728-0.515-1.055v0c-0.207-0.614-0.286-1.21-0.239-1.788 0.056-0.574 0.214-1.108 0.476-1.601 0.263-0.487 0.62-0.917 1.071-1.29 0.447-0.364 0.968-0.646 1.563-0.846v0c0.543-0.183 1.113-0.278 1.708-0.286 0.589-0.006 1.16 0.094 1.712 0.299 0.551 0.199 1.043 0.518 1.475 0.956 0.439 0.436 0.774 0.999 1.007 1.689v0c0.105 0.313 0.169 0.673 0.191 1.078 0.029 0.403 0.002 0.8-0.079 1.191v0l0.482-0.216 0.31 0.921z" fill="#000000" data-fill-palette-color="accent"></path><path d="M16.764 93.998l-0.749 0.357c-0.093-0.165-0.188-0.299-0.282-0.403-0.095-0.104-0.223-0.155-0.386-0.152-0.166-0.003-0.404 0.069-0.715 0.217v0l-4.357 2.078c-0.201 0.096-0.4 0.187-0.598 0.274-0.192 0.084-0.341 0.14-0.446 0.168v0c0.076 0.113 0.16 0.264 0.249 0.453 0.093 0.18 0.159 0.309 0.197 0.388v0l-0.877 0.418-1.56-3.269 0.749-0.358c0.09 0.174 0.184 0.308 0.283 0.404 0.095 0.104 0.223 0.155 0.386 0.152 0.172 0 0.41-0.072 0.715-0.218v0l4.347-2.073c0.207-0.099 0.408-0.187 0.603-0.265 0.192-0.084 0.342-0.144 0.451-0.181v0c-0.07-0.116-0.149-0.265-0.236-0.448-0.093-0.18-0.163-0.311-0.21-0.394v0l0.877-0.418z" fill="#000000" data-fill-palette-color="accent"></path><path d="M19.347 98.026l-0.692 0.458c-0.115-0.15-0.227-0.27-0.335-0.361-0.104-0.085-0.239-0.117-0.404-0.098-0.165 0.02-0.391 0.125-0.678 0.314v0l-2.888 1.907c-0.445 0.294-0.776 0.581-0.995 0.863-0.224 0.285-0.366 0.561-0.425 0.826-0.059 0.265-0.059 0.524 0.003 0.774 0.063 0.242 0.16 0.468 0.291 0.681v0c0.24 0.4 0.53 0.681 0.872 0.843 0.345 0.168 0.732 0.216 1.161 0.143 0.434-0.077 0.911-0.286 1.429-0.628v0l2.753-1.817c0.191-0.126 0.378-0.241 0.56-0.346 0.178-0.11 0.319-0.19 0.422-0.242v0c-0.086-0.105-0.184-0.242-0.295-0.411-0.121-0.171-0.208-0.291-0.263-0.361v0l0.811-0.535 1.611 2.441-0.692 0.457c-0.115-0.15-0.227-0.27-0.336-0.361-0.108-0.09-0.243-0.123-0.403-0.097-0.165 0.02-0.391 0.125-0.678 0.314v0l-2.627 1.734c-0.602 0.398-1.163 0.663-1.682 0.795-0.519 0.132-0.995 0.152-1.428 0.058-0.437-0.099-0.829-0.289-1.176-0.57-0.356-0.282-0.673-0.635-0.953-1.057v0c-0.387-0.586-0.625-1.131-0.716-1.636-0.091-0.506-0.062-0.969 0.087-1.392 0.152-0.432 0.395-0.822 0.73-1.173 0.325-0.352 0.713-0.677 1.164-0.974v0l2.542-1.678c0.191-0.126 0.378-0.241 0.56-0.345 0.182-0.104 0.323-0.185 0.422-0.242v0c-0.086-0.105-0.184-0.242-0.296-0.411-0.117-0.165-0.205-0.285-0.262-0.361v0l0.811-0.535z" fill="#000000" data-fill-palette-color="accent"></path><path d="M19.373 112.35l-2.899-3.162 0.612-0.561c0.137 0.14 0.266 0.241 0.388 0.303 0.121 0.072 0.259 0.083 0.414 0.033 0.165-0.05 0.371-0.189 0.619-0.417v0l3.551-3.255c0.169-0.155 0.335-0.298 0.499-0.43 0.159-0.136 0.285-0.238 0.378-0.305v0c-0.101-0.09-0.22-0.21-0.357-0.36-0.142-0.145-0.247-0.249-0.315-0.314v0l0.716-0.657c0.397 0.423 0.794 0.851 1.19 1.284 0.392 0.428 0.787 0.853 1.184 1.276v0c0.689 0.741 1.092 1.456 1.21 2.144 0.118 0.697-0.121 1.291-0.715 1.781v0c-0.193 0.159-0.42 0.266-0.68 0.321-0.26 0.056-0.549 0.045-0.865-0.03-0.317-0.066-0.648-0.207-0.992-0.423v0l-0.007 0.007c0.466 0.708 0.676 1.352 0.632 1.933-0.049 0.576-0.265 1.039-0.648 1.389v0c-0.403 0.369-0.832 0.585-1.288 0.646-0.451 0.057-0.904-0.023-1.358-0.238-0.449-0.211-0.872-0.532-1.269-0.965zM18.936 110.555v0c0.105 0.114 0.203 0.221 0.294 0.321 0.091 0.099 0.183 0.194 0.274 0.284 0.096 0.095 0.188 0.19 0.274 0.284v0c0.361 0.364 0.734 0.531 1.117 0.5 0.383-0.031 0.747-0.204 1.09-0.518v0c0.283-0.26 0.453-0.525 0.507-0.795 0.055-0.27 0.035-0.526-0.06-0.769-0.104-0.243-0.247-0.464-0.429-0.663v0c-0.141-0.154-0.262-0.286-0.363-0.395-0.105-0.114-0.217-0.231-0.335-0.352v0l-1.515 1.388c-0.169 0.155-0.33 0.298-0.484 0.431-0.149 0.127-0.272 0.222-0.37 0.284zM23.401 106.531l-1.44 1.32 0.459 0.471c0.242 0.254 0.488 0.408 0.74 0.462 0.251 0.044 0.501 0.012 0.749-0.097 0.248-0.109 0.484-0.265 0.708-0.47v0c0.244-0.223 0.392-0.446 0.444-0.668 0.048-0.227 0.036-0.445-0.036-0.654-0.077-0.204-0.193-0.386-0.349-0.545v0c-0.087-0.094-0.184-0.17-0.291-0.227-0.103-0.052-0.232-0.053-0.386-0.003-0.155 0.051-0.354 0.188-0.598 0.411z" fill="#000000" data-fill-palette-color="accent"></path><path d="M31.331 111.287l-0.512 0.652c-0.157-0.106-0.301-0.185-0.433-0.236-0.126-0.047-0.264-0.035-0.413 0.036-0.15 0.071-0.331 0.242-0.544 0.512v0l-2.137 2.722c-0.329 0.419-0.553 0.797-0.67 1.133-0.122 0.341-0.169 0.647-0.142 0.918 0.028 0.271 0.11 0.515 0.247 0.735 0.136 0.209 0.3 0.394 0.492 0.553v0c0.354 0.303 0.718 0.478 1.094 0.524 0.381 0.05 0.763-0.027 1.147-0.232 0.388-0.21 0.773-0.559 1.156-1.047v0l2.037-2.595c0.142-0.18 0.282-0.349 0.422-0.505 0.134-0.16 0.242-0.281 0.324-0.364v0c-0.114-0.073-0.251-0.172-0.411-0.296-0.169-0.124-0.29-0.21-0.362-0.259v0l0.599-0.764 2.301 1.805-0.513 0.653c-0.157-0.106-0.301-0.185-0.432-0.236-0.131-0.051-0.269-0.04-0.413 0.035-0.15 0.071-0.331 0.242-0.544 0.513v0l-1.943 2.475c-0.446 0.568-0.894 0.997-1.344 1.287-0.45 0.29-0.896 0.459-1.337 0.507-0.446 0.044-0.878-0.012-1.296-0.169-0.427-0.155-0.84-0.389-1.238-0.701v0c-0.552-0.433-0.951-0.875-1.197-1.326-0.247-0.451-0.366-0.9-0.357-1.348 0.007-0.457 0.114-0.905 0.321-1.343 0.197-0.437 0.462-0.868 0.795-1.292v0l1.881-2.396c0.142-0.18 0.282-0.349 0.422-0.505 0.14-0.156 0.248-0.277 0.324-0.363v0c-0.114-0.073-0.251-0.172-0.411-0.297-0.163-0.12-0.284-0.206-0.363-0.259v0l0.6-0.764z" fill="#000000" data-fill-palette-color="accent"></path><path d="M41.397 121.014l-0.718-0.395c0.24-0.661 0.287-1.231 0.143-1.71-0.141-0.485-0.468-0.872-0.979-1.161v0c-0.384-0.211-0.77-0.307-1.157-0.289-0.381 0.022-0.748 0.128-1.1 0.32-0.348 0.186-0.671 0.444-0.967 0.773-0.299 0.321-0.559 0.682-0.78 1.084v0c-0.347 0.633-0.564 1.245-0.65 1.836-0.089 0.582-0.037 1.111 0.156 1.587 0.19 0.466 0.534 0.836 1.031 1.108v0c0.461 0.253 0.984 0.387 1.569 0.4 0.594 0.011 1.162-0.112 1.704-0.369v0l0.264 0.78c-0.63 0.293-1.216 0.456-1.758 0.49-0.536 0.037-1.017-0.004-1.444-0.124-0.427-0.119-0.792-0.261-1.093-0.427v0c-0.568-0.312-1.03-0.696-1.387-1.154-0.348-0.46-0.593-0.96-0.735-1.5-0.136-0.537-0.165-1.095-0.085-1.674 0.082-0.57 0.274-1.131 0.577-1.681v0c0.276-0.503 0.63-0.958 1.062-1.367 0.429-0.403 0.917-0.716 1.463-0.94 0.54-0.227 1.118-0.325 1.732-0.296 0.618 0.024 1.246 0.211 1.885 0.562v0c0.29 0.159 0.58 0.38 0.872 0.663 0.294 0.277 0.543 0.587 0.747 0.93v0l0.209-0.486 0.852 0.468z" fill="#000000" data-fill-palette-color="accent"></path><path d="M48.928 130.091l-3.637-1.083 0.236-0.795c0.189 0.049 0.352 0.07 0.489 0.061 0.141 0 0.265-0.062 0.372-0.185 0.115-0.128 0.221-0.353 0.317-0.676v0l1.374-4.617c0.065-0.22 0.134-0.428 0.207-0.625 0.066-0.199 0.122-0.351 0.168-0.456v0c-0.133-0.026-0.297-0.067-0.491-0.125-0.196-0.051-0.34-0.087-0.432-0.108v0l0.277-0.931 6.042 1.798-0.63 2.368-0.796-0.237c0.133-0.446 0.159-0.804 0.077-1.075-0.09-0.266-0.236-0.472-0.439-0.617-0.203-0.145-0.412-0.246-0.628-0.303v0l-0.439-0.12c-0.168-0.05-0.32-0.071-0.457-0.062-0.136 0.009-0.259 0.078-0.368 0.207-0.109 0.129-0.211 0.353-0.304 0.67v0l-0.624 2.095 1.251 0.372 0.261-1.052 0.921 0.274-0.875 2.939-0.795-0.237c0.1-0.336 0.121-0.597 0.064-0.783-0.057-0.186-0.172-0.322-0.343-0.408-0.17-0.093-0.365-0.169-0.587-0.228v0l-0.145-0.043-0.505 1.697c-0.064 0.213-0.129 0.423-0.198 0.628-0.066 0.199-0.124 0.347-0.174 0.444v0c0.092 0.02 0.211 0.049 0.355 0.084 0.151 0.038 0.297 0.078 0.439 0.121 0.138 0.034 0.236 0.06 0.294 0.077v0z" fill="#000000" data-fill-palette-color="accent"></path><path d="M57.795 132.008v0c-0.789-0.108-1.442-0.334-1.96-0.678-0.518-0.344-0.917-0.759-1.197-1.247-0.279-0.495-0.462-1.024-0.548-1.587-0.079-0.562-0.082-1.114-0.008-1.656v0c0.072-0.521 0.232-1.041 0.48-1.558 0.254-0.51 0.592-0.964 1.014-1.362 0.422-0.398 0.93-0.7 1.524-0.904 0.586-0.199 1.249-0.247 1.991-0.145v0c0.755 0.104 1.388 0.33 1.899 0.679 0.509 0.356 0.911 0.782 1.203 1.279 0.285 0.502 0.478 1.033 0.578 1.591 0.094 0.558 0.105 1.097 0.033 1.618v0c-0.071 0.515-0.233 1.027-0.487 1.537-0.247 0.511-0.586 0.968-1.016 1.372-0.422 0.398-0.927 0.7-1.513 0.906-0.587 0.205-1.251 0.257-1.993 0.155zM58.061 131.115v0c0.428 0.059 0.803 0.001 1.126-0.172 0.323-0.167 0.595-0.412 0.817-0.736 0.221-0.317 0.395-0.671 0.523-1.062 0.129-0.391 0.22-0.78 0.273-1.167v0c0.079-0.575 0.101-1.106 0.066-1.595-0.035-0.488-0.133-0.917-0.293-1.286-0.159-0.376-0.387-0.68-0.682-0.911-0.295-0.231-0.657-0.373-1.085-0.425v0c-0.429-0.052-0.805 0.012-1.13 0.192-0.318 0.181-0.587 0.433-0.809 0.757-0.222 0.324-0.4 0.684-0.536 1.081-0.13 0.398-0.22 0.787-0.273 1.167v0c-0.054 0.394-0.068 0.818-0.042 1.271 0.026 0.453 0.11 0.887 0.25 1.301 0.14 0.421 0.353 0.774 0.641 1.059 0.294 0.286 0.679 0.461 1.154 0.526z" fill="#000000" data-fill-palette-color="accent"></path><path d="M71.957 126.276l-0.829 0.023c-0.013-0.459-0.088-0.834-0.224-1.127-0.13-0.293-0.315-0.511-0.555-0.652-0.233-0.142-0.509-0.202-0.825-0.179v0l-0.607 0.017 0.167 5.907c0.006 0.223 0.009 0.442 0.009 0.658-0.001 0.209-0.01 0.368-0.027 0.476v0c0.141-0.024 0.323-0.04 0.545-0.046 0.222-0.013 0.377-0.021 0.465-0.023v0l0.028 0.971-3.682 0.105-0.024-0.83c0.195-0.012 0.356-0.044 0.484-0.095 0.127-0.044 0.225-0.141 0.295-0.291 0.07-0.157 0.1-0.404 0.09-0.742v0l-0.171-6.028-0.586 0.016c-0.479 0.02-0.852 0.196-1.119 0.528-0.267 0.325-0.392 0.828-0.372 1.509v0l-0.83 0.023-0.02-2.854 7.637-0.217z" fill="#000000" data-fill-palette-color="accent"></path><path d="M78.603 131.359v0c-0.782 0.147-1.474 0.14-2.073-0.023-0.6-0.162-1.11-0.43-1.531-0.803-0.422-0.381-0.762-0.825-1.022-1.332-0.253-0.508-0.431-1.031-0.532-1.568v0c-0.097-0.517-0.11-1.06-0.038-1.63 0.079-0.564 0.256-1.102 0.53-1.613 0.275-0.511 0.661-0.958 1.159-1.34 0.493-0.374 1.107-0.63 1.843-0.769v0c0.749-0.141 1.421-0.126 2.016 0.044 0.596 0.176 1.111 0.454 1.546 0.831 0.429 0.386 0.78 0.828 1.052 1.326 0.265 0.499 0.447 1.007 0.544 1.525v0c0.096 0.511 0.104 1.048 0.025 1.612-0.073 0.563-0.249 1.104-0.529 1.623-0.275 0.511-0.657 0.958-1.149 1.338-0.491 0.381-1.105 0.64-1.841 0.779zM78.573 130.428v0c0.424-0.08 0.762-0.253 1.014-0.521 0.253-0.26 0.433-0.579 0.541-0.956 0.109-0.371 0.162-0.762 0.161-1.173-0.002-0.411-0.039-0.81-0.112-1.194v0c-0.107-0.57-0.255-1.081-0.442-1.533-0.188-0.452-0.416-0.828-0.686-1.128-0.27-0.306-0.582-0.522-0.935-0.648-0.353-0.126-0.741-0.146-1.164-0.059v0c-0.423 0.086-0.76 0.266-1.011 0.54-0.244 0.272-0.42 0.597-0.527 0.974-0.108 0.377-0.163 0.775-0.167 1.195 0.003 0.418 0.04 0.816 0.111 1.194v0c0.074 0.391 0.194 0.797 0.363 1.219 0.168 0.421 0.385 0.806 0.65 1.155 0.266 0.355 0.58 0.622 0.943 0.801 0.37 0.178 0.79 0.222 1.261 0.134z" fill="#000000" data-fill-palette-color="accent"></path><path d="M92.168 127.155v0c-0.332 0.15-0.677 0.254-1.036 0.313-0.362 0.067-0.714 0.075-1.056 0.022-0.345-0.059-0.657-0.184-0.936-0.376-0.276-0.201-0.499-0.489-0.668-0.864v0c-0.231-0.51-0.266-1.038-0.106-1.585 0.16-0.546 0.454-1.034 0.881-1.465v0c-0.41-0.17-0.738-0.347-0.984-0.532-0.246-0.185-0.437-0.376-0.571-0.574-0.14-0.196-0.256-0.395-0.348-0.598v0c-0.258-0.587-0.264-1.139-0.017-1.659 0.244-0.525 0.695-0.936 1.352-1.233v0c0.406-0.183 0.795-0.256 1.168-0.217 0.376 0.03 0.709 0.142 0.997 0.338 0.285 0.204 0.5 0.466 0.644 0.786v0c0.142 0.313 0.198 0.643 0.17 0.989-0.032 0.355-0.123 0.703-0.272 1.045-0.152 0.335-0.33 0.653-0.535 0.952v0c0.045 0.017 0.202 0.079 0.472 0.186 0.271 0.107 0.605 0.233 1.005 0.379 0.39 0.142 0.794 0.282 1.211 0.419v0c-0.023-0.101-0.051-0.203-0.084-0.307-0.036-0.095-0.077-0.195-0.124-0.299v0c-0.095-0.209-0.191-0.365-0.289-0.469-0.105-0.101-0.214-0.162-0.328-0.185-0.117-0.014-0.245 0.007-0.383 0.062v0l-0.334-0.737 1.927-0.872 0.388 0.858-0.639 0.256c0.079 0.076 0.157 0.166 0.234 0.272 0.071 0.108 0.139 0.233 0.202 0.374v0c0.1 0.221 0.178 0.442 0.233 0.662 0.058 0.226 0.096 0.449 0.114 0.67v0c0.042 0.011 0.081 0.023 0.116 0.036 0.038 0.02 0.077 0.032 0.117 0.036v0c0.418 0.122 0.786 0.207 1.104 0.256 0.318 0.049 0.554 0.038 0.707-0.031v0l0.342 0.756-1.235 0.559c-0.061 0.028-0.223 0.031-0.485 0.008-0.259-0.016-0.571-0.068-0.936-0.154v0c-0.178 0.392-0.436 0.756-0.772 1.093-0.339 0.331-0.754 0.608-1.246 0.83zM92.17 126.177v0c0.289-0.131 0.531-0.299 0.726-0.507 0.201-0.21 0.357-0.439 0.466-0.688v0c-0.143-0.039-0.281-0.08-0.411-0.125-0.131-0.044-0.265-0.087-0.403-0.129v0c-0.626-0.206-1.138-0.389-1.537-0.549-0.396-0.154-0.774-0.313-1.136-0.474v0c-0.095 0.183-0.146 0.373-0.153 0.569-0.008 0.196 0.009 0.381 0.05 0.555 0.033 0.17 0.075 0.314 0.129 0.43v0c0.156 0.344 0.349 0.608 0.58 0.793 0.234 0.19 0.493 0.295 0.776 0.315 0.289 0.017 0.594-0.046 0.913-0.19zM90.059 122.122v0c0.189-0.352 0.281-0.73 0.275-1.135-0.003-0.399-0.057-0.715-0.162-0.948v0c-0.125-0.277-0.296-0.473-0.511-0.591-0.213-0.111-0.439-0.112-0.679-0.003v0c-0.209 0.095-0.351 0.263-0.428 0.504-0.067 0.245-0.024 0.536 0.129 0.874v0c0.103 0.227 0.287 0.463 0.552 0.706 0.259 0.246 0.534 0.444 0.824 0.593z" fill="#000000" data-fill-palette-color="accent"></path><path d="M106.015 118.726l-0.82 0.627-6.412-3.608c-0.191-0.117-0.389-0.242-0.592-0.375-0.198-0.137-0.338-0.259-0.421-0.367v0c-0.099 0.093-0.194 0.174-0.285 0.244-0.082 0.071-0.158 0.138-0.229 0.2v0l-0.59-0.772 2.951-2.255 0.504 0.66c-0.251 0.183-0.397 0.38-0.44 0.591-0.039 0.216 0.112 0.424 0.451 0.623v0c0.442 0.256 0.884 0.518 1.325 0.783 0.446 0.262 0.89 0.521 1.332 0.778v0c0.326 0.193 0.608 0.363 0.849 0.51 0.244 0.153 0.516 0.314 0.816 0.485v0l0.008-0.006c-0.076-0.256-0.171-0.54-0.283-0.854-0.103-0.312-0.2-0.611-0.292-0.898v0c-0.094-0.301-0.19-0.598-0.285-0.89-0.094-0.301-0.187-0.6-0.277-0.896-0.09-0.296-0.183-0.59-0.279-0.882v0c-0.048-0.141-0.111-0.34-0.188-0.595-0.072-0.25-0.107-0.462-0.102-0.635v0c-0.099 0.093-0.232 0.202-0.398 0.33-0.162 0.132-0.279 0.23-0.35 0.292v0l-0.589-0.772 2.259-1.726 0.504 0.659c-0.222 0.187-0.355 0.424-0.399 0.712-0.047 0.282 0.006 0.675 0.161 1.177v0c0.113 0.381 0.225 0.762 0.338 1.142 0.113 0.381 0.23 0.762 0.352 1.144 0.113 0.381 0.227 0.764 0.344 1.151 0.113 0.381 0.225 0.762 0.338 1.142 0.122 0.382 0.24 0.764 0.353 1.145 0.114 0.371 0.229 0.75 0.346 1.136z" fill="#000000" data-fill-palette-color="accent"></path><path d="M106.943 106.128l0.578 0.595c-0.126 0.141-0.223 0.274-0.292 0.396-0.069 0.123-0.075 0.261-0.02 0.415 0.05 0.158 0.195 0.361 0.435 0.607v0l3.365 3.461c0.155 0.16 0.306 0.319 0.452 0.478 0.141 0.155 0.242 0.278 0.302 0.37v0c0.083-0.109 0.199-0.236 0.349-0.382 0.14-0.146 0.242-0.249 0.305-0.311v0l0.677 0.697-2.597 2.525-0.579-0.594c0.136-0.141 0.233-0.273 0.292-0.397 0.069-0.123 0.075-0.261 0.02-0.415-0.055-0.163-0.2-0.365-0.435-0.607v0l-3.358-3.453c-0.16-0.164-0.308-0.326-0.444-0.486-0.141-0.155-0.247-0.278-0.317-0.369v0c-0.087 0.104-0.204 0.226-0.348 0.367-0.14 0.146-0.242 0.254-0.305 0.325v0l-0.678-0.697z" fill="#000000" data-fill-palette-color="accent"></path><path d="M114.853 110.436l-0.653-0.511c0.115-0.158 0.194-0.302 0.235-0.433 0.051-0.131 0.039-0.269-0.035-0.414-0.076-0.154-0.247-0.335-0.513-0.543v0l-3.792-2.97c-0.181-0.141-0.349-0.282-0.506-0.421-0.16-0.134-0.282-0.242-0.363-0.324v0c-0.073 0.115-0.171 0.251-0.296 0.411-0.119 0.163-0.206 0.284-0.259 0.363v0l-0.765-0.599 2.257-2.898c0.512-0.653 1.053-1.142 1.624-1.466 0.57-0.334 1.14-0.521 1.712-0.561 0.571-0.05 1.121 0.008 1.65 0.174 0.524 0.162 0.991 0.403 1.4 0.724v0c0.404 0.316 0.759 0.71 1.066 1.182 0.302 0.468 0.51 0.99 0.623 1.568 0.108 0.573 0.078 1.192-0.091 1.856-0.17 0.655-0.528 1.33-1.073 2.026v0zM111.082 104.025l3.824 2.995c0.175 0.137 0.346 0.275 0.512 0.414 0.16 0.134 0.277 0.243 0.349 0.325v0c0.049-0.073 0.119-0.168 0.211-0.285 0.093-0.107 0.189-0.225 0.288-0.352 0.105-0.123 0.189-0.225 0.252-0.305v0c0.283-0.361 0.455-0.728 0.515-1.1 0.055-0.377 0.027-0.746-0.084-1.107-0.117-0.365-0.3-0.711-0.552-1.036-0.246-0.321-0.533-0.61-0.862-0.868v0c-0.674-0.528-1.3-0.868-1.875-1.019-0.576-0.151-1.101-0.142-1.576 0.025-0.474 0.168-0.901 0.477-1.278 0.927v0c-0.13 0.155-0.218 0.3-0.265 0.436-0.05 0.141-0.038 0.283 0.038 0.428 0.081 0.149 0.248 0.323 0.503 0.522z" fill="#000000" data-fill-palette-color="accent"></path><path d="M121.165 95.764l-0.405 0.724c-0.306-0.171-0.555-0.245-0.746-0.22-0.194 0.015-0.355 0.095-0.483 0.24-0.128 0.145-0.243 0.316-0.345 0.514v0l-0.146 0.301 1.801 1.009c0.194 0.109 0.378 0.216 0.552 0.32 0.173 0.105 0.302 0.192 0.386 0.263v0l0.826-1.475c0.125-0.224 0.197-0.462 0.214-0.715 0.015-0.262-0.054-0.525-0.207-0.789-0.163-0.261-0.442-0.502-0.836-0.723v0l0.4-0.715 2.39 1.408-3.254 5.809-0.724-0.405c0.09-0.174 0.145-0.328 0.167-0.464 0.031-0.138-0.002-0.272-0.099-0.403-0.099-0.141-0.296-0.293-0.59-0.458v0l-4.202-2.353c-0.2-0.112-0.388-0.225-0.564-0.339-0.179-0.108-0.315-0.196-0.409-0.264v0c-0.054 0.124-0.131 0.275-0.23 0.451-0.093 0.18-0.16 0.313-0.2 0.398v0l-0.847-0.474 3.08-5.501 2.171 1.135-0.405 0.724c-0.406-0.227-0.75-0.331-1.032-0.311-0.279 0.029-0.512 0.127-0.698 0.293-0.186 0.166-0.33 0.348-0.434 0.546v0l-0.213 0.403c-0.086 0.153-0.139 0.297-0.161 0.431-0.021 0.135 0.019 0.27 0.122 0.405 0.102 0.135 0.298 0.283 0.586 0.444v0l1.651 0.925 0.722-1.289-0.987-0.495 0.474-0.848z" fill="#000000" data-fill-palette-color="accent"></path><path d="M127.253 89.539v0c-0.273 0.748-0.632 1.338-1.078 1.772-0.445 0.433-0.936 0.736-1.472 0.906-0.543 0.168-1.098 0.235-1.667 0.199-0.567-0.042-1.106-0.156-1.62-0.343v0c-0.494-0.18-0.968-0.447-1.421-0.799-0.445-0.356-0.817-0.783-1.117-1.279-0.3-0.497-0.487-1.057-0.561-1.681-0.07-0.614 0.023-1.273 0.28-1.977v0c0.261-0.716 0.617-1.287 1.066-1.711 0.456-0.423 0.957-0.724 1.505-0.905 0.551-0.172 1.11-0.248 1.677-0.228 0.565 0.027 1.094 0.13 1.589 0.31v0c0.488 0.178 0.954 0.445 1.399 0.801 0.447 0.35 0.822 0.778 1.126 1.284 0.3 0.497 0.488 1.054 0.564 1.671 0.077 0.617-0.014 1.277-0.27 1.98zM126.436 89.09v0c0.148-0.406 0.171-0.785 0.071-1.138-0.095-0.351-0.277-0.668-0.546-0.953-0.263-0.283-0.572-0.528-0.927-0.737-0.355-0.208-0.716-0.38-1.084-0.513v0c-0.545-0.199-1.06-0.333-1.544-0.403-0.485-0.069-0.924-0.064-1.32 0.015-0.401 0.076-0.746 0.234-1.034 0.473-0.288 0.239-0.504 0.563-0.645 0.971v0c-0.142 0.408-0.159 0.789-0.052 1.145 0.11 0.349 0.299 0.666 0.569 0.95 0.269 0.285 0.584 0.536 0.942 0.754 0.361 0.211 0.722 0.382 1.084 0.513v0c0.374 0.136 0.785 0.24 1.233 0.311 0.448 0.07 0.89 0.081 1.325 0.03 0.441-0.047 0.831-0.181 1.17-0.402 0.341-0.227 0.594-0.566 0.758-1.016z" fill="#000000" data-fill-palette-color="accent"></path><path d="M1.124 67.492c0-1.903 1.543-3.446 3.446-3.446 1.903 0 3.446 1.543 3.446 3.446 0 1.903-1.543 3.446-3.446 3.446-1.903 0-3.446-1.543-3.446-3.446z" fill="#000000" data-fill-palette-color="accent"></path><path d="M124.389 67.492c0-1.903 1.543-3.446 3.446-3.446 1.903 0 3.446 1.543 3.446 3.446 0 1.903-1.543 3.446-3.446 3.446-1.903 0-3.446-1.543-3.446-3.446z" fill="#000000" data-fill-palette-color="accent"></path></g><g id="text-1"></g></svg></g></svg></g><g></g></svg></g><defs></defs></svg><rect width="395.52" height="173.10150645409703" fill="none" stroke="none" visibility="hidden"></rect></g></svg></g></svg>